<svg width="17" height="17" viewBox="0 0 17 17" fill="none" xmlns="http://www.w3.org/2000/svg">
<path d="M10.9093 5.82559C10.4951 5.82559 10.1593 6.16138 10.1593 6.57559C10.1593 6.98981 10.4951 7.32559 10.9093 7.32559V5.82559ZM13.576 7.32559C13.9902 7.32559 14.326 6.98981 14.326 6.57559C14.326 6.16138 13.9902 5.82559 13.576 5.82559V7.32559ZM14.3256 6.57575C14.3256 6.16154 13.9899 5.82575 13.5756 5.82575C13.1614 5.82575 12.8256 6.16154 12.8256 6.57575H14.3256ZM12.8256 9.24242C12.8256 9.65664 13.1614 9.99242 13.5756 9.99242C13.9899 9.99242 14.3256 9.65664 14.3256 9.24242H12.8256ZM14.1058 7.10602C14.3987 6.81313 14.3987 6.33826 14.1058 6.04536C13.8129 5.75247 13.338 5.75247 13.0451 6.04536L14.1058 7.10602ZM8.90876 11.2424L8.37843 11.7727C8.51908 11.9133 8.70985 11.9924 8.90876 11.9924C9.10767 11.9924 9.29844 11.9133 9.43909 11.7727L8.90876 11.2424ZM6.90876 9.24236L7.43909 8.71203C7.29844 8.57138 7.10767 8.49236 6.90876 8.49236C6.70985 8.49236 6.51908 8.57138 6.37843 8.71203L6.90876 9.24236ZM3.71177 11.3787C3.41887 11.6716 3.41887 12.1465 3.71177 12.4394C4.00466 12.7322 4.47953 12.7322 4.77243 12.4394L3.71177 11.3787ZM10.9093 7.32559H13.576V5.82559H10.9093V7.32559ZM12.8256 6.57575V9.24242H14.3256V6.57575H12.8256ZM13.0451 6.04536L8.37843 10.712L9.43909 11.7727L14.1058 7.10602L13.0451 6.04536ZM9.43909 10.712L7.43909 8.71203L6.37843 9.77269L8.37843 11.7727L9.43909 10.712ZM6.37843 8.71203L3.71177 11.3787L4.77243 12.4394L7.43909 9.77269L6.37843 8.71203Z" fill="white"/>
</svg>
