<svg width="16" height="17" viewBox="0 0 16 17" fill="none" xmlns="http://www.w3.org/2000/svg">
<path d="M10.0002 11.5835C9.586 11.5835 9.25021 11.2477 9.25021 10.8335C9.25021 10.4193 9.586 10.0835 10.0002 10.0835V11.5835ZM12.6669 10.0835C13.0811 10.0835 13.4169 10.4193 13.4169 10.8335C13.4169 11.2477 13.0811 11.5835 12.6669 11.5835V10.0835ZM13.4166 10.8333C13.4166 11.2475 13.0808 11.5833 12.6666 11.5833C12.2524 11.5833 11.9166 11.2475 11.9166 10.8333H13.4166ZM11.9166 8.16666C11.9166 7.75245 12.2524 7.41666 12.6666 7.41666C13.0808 7.41666 13.4166 7.75245 13.4166 8.16666H11.9166ZM13.1967 10.303C13.4896 10.5959 13.4896 11.0708 13.1967 11.3637C12.9038 11.6566 12.4289 11.6566 12.136 11.3637L13.1967 10.303ZM7.99967 6.16671L7.46934 5.63638C7.61 5.49573 7.80076 5.41671 7.99967 5.41671C8.19859 5.41671 8.38935 5.49573 8.53 5.63638L7.99967 6.16671ZM5.99967 8.16671L6.53 8.69704C6.38935 8.83769 6.19859 8.91671 5.99967 8.91671C5.80076 8.91671 5.61 8.83769 5.46934 8.69704L5.99967 8.16671ZM2.80268 6.03037C2.50978 5.73748 2.50978 5.26261 2.80268 4.96971C3.09557 4.67682 3.57044 4.67682 3.86334 4.96971L2.80268 6.03037ZM10.0002 10.0835H12.6669V11.5835H10.0002V10.0835ZM11.9166 10.8333V8.16666H13.4166V10.8333H11.9166ZM12.136 11.3637L7.46934 6.69704L8.53 5.63638L13.1967 10.303L12.136 11.3637ZM8.53 6.69704L6.53 8.69704L5.46934 7.63638L7.46934 5.63638L8.53 6.69704ZM5.46934 8.69704L2.80268 6.03037L3.86334 4.96971L6.53 7.63638L5.46934 8.69704Z" fill="white"/>
</svg>
