<svg width="16" height="16" viewBox="0 0 16 16" fill="none" xmlns="http://www.w3.org/2000/svg">
<path d="M9.88658 4.85211C9.47236 4.85211 9.13658 5.1879 9.13658 5.60211C9.13658 6.01633 9.47236 6.35211 9.88658 6.35211V4.85211ZM12.5229 6.35211C12.9372 6.35211 13.2729 6.01633 13.2729 5.60211C13.2729 5.1879 12.9372 4.85211 12.5229 4.85211V6.35211ZM13.2726 5.60227C13.2726 5.18806 12.9368 4.85227 12.5226 4.85227C12.1084 4.85227 11.7726 5.18806 11.7726 5.60227H13.2726ZM11.7726 8.23864C11.7726 8.65285 12.1084 8.98864 12.5226 8.98864C12.9368 8.98864 13.2726 8.65285 13.2726 8.23864H11.7726ZM13.0527 6.13254C13.3456 5.83965 13.3456 5.36477 13.0527 5.07188C12.7598 4.77899 12.285 4.77899 11.9921 5.07188L13.0527 6.13254ZM7.90877 10.2158L7.37844 10.7462C7.51909 10.8868 7.70986 10.9658 7.90877 10.9658C8.10768 10.9658 8.29845 10.8868 8.4391 10.7462L7.90877 10.2158ZM5.9315 8.23858L6.46183 7.70825C6.32118 7.56759 6.13041 7.48858 5.9315 7.48858C5.73259 7.48858 5.54182 7.56759 5.40117 7.70825L5.9315 8.23858ZM2.76481 10.3446C2.47191 10.6375 2.47191 11.1124 2.76481 11.4053C3.0577 11.6982 3.53257 11.6982 3.82547 11.4053L2.76481 10.3446ZM9.88658 6.35211H12.5229V4.85211H9.88658V6.35211ZM11.7726 5.60227V8.23864H13.2726V5.60227H11.7726ZM11.9921 5.07188L7.37844 9.68552L8.4391 10.7462L13.0527 6.13254L11.9921 5.07188ZM8.4391 9.68552L6.46183 7.70825L5.40117 8.76891L7.37844 10.7462L8.4391 9.68552ZM5.40117 7.70825L2.76481 10.3446L3.82547 11.4053L6.46183 8.76891L5.40117 7.70825Z" fill="#5EAFFF"/>
</svg>
