<svg width="17" height="17" viewBox="0 0 17 17" fill="none" xmlns="http://www.w3.org/2000/svg">
<path d="M10.9093 5.81694C10.4903 5.81694 10.1507 6.15659 10.1507 6.57556C10.1507 6.99454 10.4903 7.33418 10.9093 7.33418V5.81694ZM13.5759 7.33418C13.9949 7.33418 14.3346 6.99454 14.3346 6.57556C14.3346 6.15659 13.9949 5.81694 13.5759 5.81694V7.33418ZM14.3342 6.57572C14.3342 6.15675 13.9946 5.8171 13.5756 5.8171C13.1566 5.8171 12.817 6.15675 12.817 6.57572H14.3342ZM12.817 9.24239C12.817 9.66137 13.1566 10.001 13.5756 10.001C13.9946 10.001 14.3342 9.66137 14.3342 9.24239H12.817ZM14.1118 7.11209C14.4081 6.81583 14.4081 6.3355 14.1118 6.03924C13.8156 5.74298 13.3352 5.74298 13.039 6.03924L14.1118 7.11209ZM8.90873 11.2423L8.37231 11.7788C8.51458 11.921 8.70753 12.0009 8.90873 12.0009C9.10993 12.0009 9.30289 11.921 9.44516 11.7788L8.90873 11.2423ZM6.90873 9.24233L7.44516 8.7059C7.30289 8.56363 7.10993 8.48371 6.90873 8.48371C6.70753 8.48371 6.51458 8.56363 6.37231 8.7059L6.90873 9.24233ZM3.70564 11.3726C3.40938 11.6688 3.40938 12.1492 3.70564 12.4454C4.0019 12.7417 4.48223 12.7417 4.77849 12.4454L3.70564 11.3726ZM10.9093 7.33418H13.5759V5.81694H10.9093V7.33418ZM12.817 6.57572V9.24239H14.3342V6.57572H12.817ZM13.039 6.03924L8.37231 10.7059L9.44516 11.7788L14.1118 7.11209L13.039 6.03924ZM9.44516 10.7059L7.44516 8.7059L6.37231 9.77875L8.37231 11.7788L9.44516 10.7059ZM6.37231 8.7059L3.70564 11.3726L4.77849 12.4454L7.44516 9.77875L6.37231 8.7059Z" fill="black"/>
</svg>
