<svg width="24" height="24" viewBox="0 0 24 24" fill="none" xmlns="http://www.w3.org/2000/svg">
<rect width="24" height="24" rx="12" fill="white"/>
<path d="M12 5.50108C11.7239 5.50108 11.5 5.72494 11.5 6.00108C11.5 6.27723 11.7239 6.50108 12 6.50108L12 5.50108ZM17.8681 6.50108C18.1442 6.50108 18.3681 6.27723 18.3681 6.00108C18.3681 5.72494 18.1442 5.50108 17.8681 5.50108L17.8681 6.50108ZM18.3723 6C18.3723 5.72386 18.1484 5.5 17.8723 5.5C17.5961 5.5 17.3723 5.72386 17.3723 6L18.3723 6ZM17.3723 11.868C17.3723 12.1442 17.5961 12.368 17.8723 12.368C18.1484 12.368 18.3723 12.1442 18.3723 11.868L17.3723 11.868ZM12 6.50108L17.8681 6.50108L17.8681 5.50108L12 5.50108L12 6.50108ZM17.3723 6L17.3723 11.868L18.3723 11.868L18.3723 6L17.3723 6Z" fill="black"/>
<path d="M11.8723 18.4989C12.1484 18.4989 12.3723 18.2751 12.3723 17.9989C12.3723 17.7228 12.1484 17.4989 11.8723 17.4989L11.8723 18.4989ZM6.00422 17.4989C5.72808 17.4989 5.50422 17.7228 5.50422 17.9989C5.50422 18.2751 5.72808 18.4989 6.00422 18.4989L6.00422 17.4989ZM5.5 18C5.5 18.2761 5.72386 18.5 6 18.5C6.27614 18.5 6.5 18.2761 6.5 18L5.5 18ZM6.5 12.132C6.5 11.8558 6.27614 11.632 6 11.632C5.72386 11.632 5.5 11.8558 5.5 12.132L6.5 12.132ZM11.8723 17.4989L6.00422 17.4989L6.00422 18.4989L11.8723 18.4989L11.8723 17.4989ZM6.5 18L6.5 12.132L5.5 12.132L5.5 18L6.5 18Z" fill="black"/>
</svg>
