<svg width="20" height="20" viewBox="0 0 20 20" fill="none" xmlns="http://www.w3.org/2000/svg">
<path fill-rule="evenodd" clip-rule="evenodd" d="M6.18411 1.93199H11.057H6.18411Z" fill="white"/>
<path d="M6.18411 1.93199H11.057" stroke="white" stroke-width="2.28009" stroke-linecap="round"/>
<path fill-rule="evenodd" clip-rule="evenodd" d="M16.0435 12.8297C15.8274 12.8611 15.6063 12.8774 15.3815 12.8774C12.863 12.8774 10.8213 10.8357 10.8213 8.31723C10.8213 7.20907 11.2166 6.19324 11.8739 5.40302C10.8944 4.88782 9.78892 4.58505 8.62127 4.55151C5.00699 4.65144 1.98581 7.33122 1.45527 10.9078C1.326 12.368 1.03765 13.8097 0.595355 15.2074C0.00938154 15.997 -0.115444 17.0375 0.267152 17.9433C0.690362 18.6684 1.46286 19.1183 2.3023 19.1286H14.9374C15.7768 19.1183 16.5493 18.6684 16.9725 17.9433C17.3551 17.0353 17.2281 15.9926 16.6386 15.2031C16.3921 14.4242 16.1934 13.6316 16.0435 12.8297Z" fill="white"/>
<circle cx="15.3816" cy="8.31666" r="3.64815" fill="#F3A11E"/>
</svg>
