<svg width="16" height="16" viewBox="0 0 16 16" fill="none" xmlns="http://www.w3.org/2000/svg">
<path fill-rule="evenodd" clip-rule="evenodd" d="M8.96609 4.00049L10.6387 5.24664C10.7938 5.36402 10.8849 5.54725 10.8849 5.74172C10.8849 5.93619 10.7938 6.11943 10.6387 6.2368L8.01716 8.19003L10.6387 10.1433C10.7938 10.2606 10.8849 10.4439 10.8849 10.6383C10.8849 10.8328 10.7938 11.016 10.6387 11.1334L8.96609 12.3796C8.78239 12.5138 8.53836 12.5319 8.33684 12.4264C8.13531 12.3208 8.01134 12.1098 8.01716 11.8823V4.49772C8.01134 4.27028 8.13531 4.0593 8.33684 3.95371C8.53836 3.84811 8.78239 3.86625 8.96609 4.00049V4.00049Z" stroke="#12A549" stroke-width="0.923077" stroke-linecap="round" stroke-linejoin="round"/>
<path d="M4.73102 6.35373L8.01717 8.19004L4.73102 10.0263" stroke="#12A549" stroke-width="0.923077" stroke-linecap="round" stroke-linejoin="round"/>
</svg>
