<svg width="19" height="16" viewBox="0 0 19 16" fill="none" xmlns="http://www.w3.org/2000/svg">
<path d="M13.5715 15.723H5.0298C2.3221 15.723 0.118347 13.5193 0.118347 10.8115V2.62863C0.118347 1.51821 0.630847 1.13383 0.938347 1.00571C1.24585 0.877585 1.87793 0.783626 2.66376 1.56946L4.87606 3.78175C4.96147 3.86717 5.09814 3.86717 5.17501 3.78175L8.24147 0.715293C8.80522 0.151543 9.79605 0.151543 10.3513 0.715293L13.4177 3.78175C13.5031 3.86717 13.6398 3.86717 13.7167 3.78175L15.929 1.56946C16.7148 0.783626 17.3469 0.886126 17.6544 1.00571C17.9619 1.13383 18.4744 1.50967 18.4744 2.62863V10.8201C18.4829 13.7499 16.5098 15.723 13.5715 15.723ZM1.45085 2.22717C1.42522 2.2955 1.3996 2.42363 1.3996 2.62863V10.8201C1.3996 12.8188 3.03106 14.4503 5.0298 14.4503H13.5715C15.7752 14.4503 17.2017 13.0238 17.2017 10.8201V2.62863C17.2017 2.42363 17.1761 2.30404 17.1504 2.23571C17.0821 2.26988 16.9796 2.33821 16.8344 2.48342L14.6221 4.69571C14.0583 5.25946 13.0675 5.25946 12.5123 4.69571L9.44585 1.62925C9.36043 1.54383 9.22376 1.54383 9.14689 1.62925L6.08897 4.68717C5.52522 5.25092 4.53439 5.25092 3.97918 4.68717L1.76689 2.47488C1.62168 2.32967 1.51064 2.26133 1.45085 2.22717Z" fill="#292D32" stroke="black" stroke-width="0.1"/>
</svg>
