<svg width="24" height="23" viewBox="0 0 24 23" fill="none" xmlns="http://www.w3.org/2000/svg">
<g clip-path="url(#clip0_1_821)">
<path d="M16.4351 5.46179L15.9287 4.9554C15.7271 4.75423 15.4539 4.64125 15.1691 4.64125C14.8843 4.64125 14.6111 4.75423 14.4095 4.9554L13.9031 5.46179C13.7015 5.26062 13.4283 5.14764 13.1435 5.14764C12.8587 5.14764 12.5855 5.26062 12.3839 5.46179L11.8775 5.96818C11.6764 6.16979 11.5634 6.44296 11.5634 6.72777C11.5634 7.01257 11.6764 7.28575 11.8775 7.48736L13.1435 8.75334L8.586 13.3109L7.32002 12.0449C7.11841 11.8437 6.84524 11.7307 6.56043 11.7307C6.27563 11.7307 6.00245 11.8437 5.80085 12.0449L5.29445 12.5513C5.09329 12.7529 4.98031 13.0261 4.98031 13.3109C4.98031 13.5957 5.09329 13.8688 5.29445 14.0704L4.78806 14.5768C4.58689 14.7784 4.47392 15.0516 4.47392 15.3364C4.47392 15.6212 4.58689 15.8944 4.78806 16.096L5.29445 16.6024C5.093 16.8039 4.97982 17.0771 4.97982 17.362C4.97982 17.6469 5.093 17.9201 5.29445 18.1216C5.49591 18.323 5.76914 18.4362 6.05404 18.4362C6.33894 18.4362 6.61217 18.323 6.81363 18.1216L7.32002 18.628C7.52163 18.8291 7.7948 18.9421 8.07961 18.9421C8.36441 18.9421 8.63759 18.8291 8.83919 18.628L9.34559 18.1216C9.54719 18.3227 9.82037 18.4357 10.1052 18.4357C10.39 18.4357 10.6632 18.3227 10.8648 18.1216L11.3712 17.6152C11.5723 17.4136 11.6853 17.1404 11.6853 16.8556C11.6853 16.5708 11.5723 16.2976 11.3712 16.096L10.1052 14.83L14.6627 10.2725L15.9287 11.5385C16.1303 11.7397 16.4035 11.8526 16.6883 11.8526C16.9731 11.8526 17.2462 11.7397 17.4479 11.5385L17.9542 11.0321C18.1554 10.8305 18.2684 10.5573 18.2684 10.2725C18.2684 9.9877 18.1554 9.71453 17.9542 9.51292L18.4606 9.00653C18.6618 8.80492 18.7748 8.53175 18.7748 8.24694C18.7748 7.96214 18.6618 7.68896 18.4606 7.48736L17.9542 6.98096C18.1557 6.77951 18.2689 6.50628 18.2689 6.22138C18.2689 5.93648 18.1557 5.66324 17.9542 5.46179C17.7528 5.26033 17.4796 5.14716 17.1947 5.14716C16.9098 5.14716 16.6365 5.26033 16.4351 5.46179ZM17.4479 6.47457L16.9415 5.96818C17.0086 5.90103 17.0997 5.8633 17.1947 5.8633C17.2896 5.8633 17.3807 5.90103 17.4479 5.96818C17.515 6.03533 17.5527 6.12641 17.5527 6.22138C17.5527 6.31634 17.515 6.40742 17.4479 6.47457ZM17.9542 8.50014L17.4479 9.00653L14.4095 5.96818L14.9159 5.46179C14.9831 5.39475 15.0742 5.3571 15.1691 5.35711C15.264 5.35711 15.3551 5.39475 15.4223 5.46179L17.9542 7.99375C18.0213 8.06096 18.0589 8.15201 18.0589 8.24694C18.0589 8.34187 18.0213 8.43293 17.9542 8.50014ZM17.4479 10.5257L16.9415 11.0321C16.8742 11.0991 16.7832 11.1368 16.6883 11.1368C16.5933 11.1368 16.5023 11.0991 16.4351 11.0321L12.3839 6.98096C12.3169 6.91375 12.2793 6.8227 12.2793 6.72777C12.2793 6.63284 12.3169 6.54178 12.3839 6.47457L12.8903 5.96818C12.9575 5.90114 13.0486 5.8635 13.1435 5.8635C13.2385 5.8635 13.3295 5.90114 13.3967 5.96818L17.4479 10.0193C17.5149 10.0865 17.5525 10.1776 17.5525 10.2725C17.5525 10.3674 17.5149 10.4585 17.4479 10.5257ZM10.8648 17.1088L10.3584 17.6152C10.2912 17.6822 10.2001 17.7199 10.1052 17.7199C10.0102 17.7199 9.91919 17.6822 9.85198 17.6152L5.80085 13.5641C5.73381 13.4968 5.69616 13.4058 5.69616 13.3109C5.69616 13.2159 5.73381 13.1249 5.80085 13.0577L6.30724 12.5513C6.37445 12.4842 6.4655 12.4466 6.56043 12.4466C6.65536 12.4466 6.74642 12.4842 6.81363 12.5513L10.8648 16.6024C10.9318 16.6696 10.9694 16.7607 10.9694 16.8556C10.9694 16.9505 10.9318 17.0416 10.8648 17.1088ZM7.82641 18.1216L5.29445 15.5896C5.22742 15.5224 5.18977 15.4314 5.18977 15.3364C5.18977 15.2415 5.22742 15.1504 5.29445 15.0832L5.80085 14.5768L8.83919 17.6152L8.3328 18.1216C8.26559 18.1886 8.17454 18.2263 8.07961 18.2263C7.98468 18.2263 7.89362 18.1886 7.82641 18.1216ZM5.80085 17.6152C5.73381 17.548 5.69616 17.4569 5.69616 17.362C5.69616 17.2671 5.73381 17.176 5.80085 17.1088L6.30724 17.6152C6.24002 17.6822 6.14897 17.7199 6.05404 17.7199C5.95911 17.7199 5.86806 17.6822 5.80085 17.6152ZM9.09239 13.8173L13.6499 9.25973L14.1563 9.76612L9.59878 14.3236L9.09239 13.8173Z" fill="white"/>
</g>
<defs>
<clipPath id="clip0_1_821">
<rect width="19.25" height="15.5833" fill="white" transform="translate(1.99943 4)"/>
</clipPath>
</defs>
</svg>
