<svg xmlns="http://www.w3.org/2000/svg" width="14" height="14" viewBox="0 0 14 14" fill="none">
<path fill-rule="evenodd" clip-rule="evenodd" d="M1.45825 7.72917C1.45825 10.7858 3.94325 13.2708 6.99992 13.2708C10.0566 13.2708 12.5416 10.7858 12.5416 7.72917C12.5416 4.6725 10.0566 2.1875 6.99992 2.1875C3.94325 2.1875 1.45825 4.6725 1.45825 7.72917ZM6.56256 7.58404V4.66797C6.56256 4.4288 6.76089 4.23047 7.00006 4.23047C7.23922 4.23047 7.43756 4.4288 7.43756 4.66797V7.20052H9.02814C9.20412 7.20052 9.35006 7.39885 9.35006 7.63802C9.35006 7.87719 9.20412 8.07552 9.02814 8.07552L6.88198 8.07552C6.706 8.07552 6.56006 7.87719 6.56006 7.63802C6.56006 7.61977 6.56091 7.60175 6.56256 7.58404Z" fill="white" fill-opacity="0.7"/>
<path d="M8.75 1.60413H5.25C5.01083 1.60413 4.8125 1.40579 4.8125 1.16663C4.8125 0.927459 5.01083 0.729126 5.25 0.729126H8.75C8.98917 0.729126 9.1875 0.927459 9.1875 1.16663C9.1875 1.40579 8.98917 1.60413 8.75 1.60413Z" fill="white" fill-opacity="0.7"/>
</svg>