<svg width="20" height="16" viewBox="0 0 20 16" fill="none" xmlns="http://www.w3.org/2000/svg">
<path fill-rule="evenodd" clip-rule="evenodd" d="M1.30029 3V13C1.30029 14.1046 2.19572 15 3.30029 15H17.3003C18.4049 15 19.3003 14.1046 19.3003 13V3C19.3003 1.89543 18.4049 1 17.3003 1H3.30029C2.19572 1 1.30029 1.89543 1.30029 3Z" stroke="black" stroke-width="1.3" stroke-linecap="round" stroke-linejoin="round"/>
<path d="M13.3003 5.9991H16.3003" stroke="black" stroke-width="1.3" stroke-linecap="round"/>
<path d="M13.3003 9.0006H16.3003" stroke="black" stroke-width="1.3" stroke-linecap="round"/>
<path fill-rule="evenodd" clip-rule="evenodd" d="M9.30035 5.9994C9.30035 7.10397 8.40492 7.9994 7.30035 7.9994C6.19578 7.9994 5.30035 7.10397 5.30035 5.9994C5.30035 4.89484 6.19578 3.9994 7.30035 3.9994C7.83079 3.9994 8.33949 4.21012 8.71457 4.58519C9.08964 4.96026 9.30035 5.46897 9.30035 5.9994Z" stroke="black" stroke-width="1.3" stroke-linecap="round" stroke-linejoin="round"/>
<path d="M3.30029 12C6.08329 8.86299 9.35229 9.84899 11.3003 12" stroke="black" stroke-width="1.3" stroke-linecap="round"/>
</svg>
