<svg width="17" height="17" viewBox="0 0 17 17" fill="none" xmlns="http://www.w3.org/2000/svg">
<path d="M7.55029 6.874C7.55029 7.28821 7.88608 7.624 8.30029 7.624C8.71451 7.624 9.05029 7.28821 9.05029 6.874H7.55029ZM9.05029 1C9.05029 0.585786 8.71451 0.25 8.30029 0.25C7.88608 0.25 7.55029 0.585786 7.55029 1H9.05029ZM5.61111 3.66156C5.98808 3.48991 6.15452 3.04515 5.98286 2.66818C5.8112 2.29121 5.36645 2.12478 4.98948 2.29644L5.61111 3.66156ZM1.30029 9.16L0.550196 9.15607L0.550344 9.16873L1.30029 9.16ZM8.30029 16L8.3089 15.25C8.30316 15.25 8.29742 15.25 8.29168 15.25L8.30029 16ZM15.3003 9.16L16.0503 9.16873L16.0503 9.15607L15.3003 9.16ZM11.6111 2.29644C11.2341 2.12478 10.7894 2.29121 10.6177 2.66818C10.4461 3.04515 10.6125 3.48991 10.9895 3.66156L11.6111 2.29644ZM9.05029 6.874V1H7.55029V6.874H9.05029ZM4.98948 2.29644C2.29872 3.52171 0.565796 6.19951 0.550303 9.15607L2.05028 9.16393C2.06271 6.79237 3.45275 4.6444 5.61111 3.66156L4.98948 2.29644ZM0.550344 9.16873C0.599642 13.4046 4.07307 16.7986 8.3089 16.75L8.29168 15.25C4.88413 15.2892 2.0899 12.5588 2.05024 9.15127L0.550344 9.16873ZM8.29168 16.75C12.5275 16.7986 16.0009 13.4046 16.0502 9.16873L14.5503 9.15127C14.5107 12.5588 11.7165 15.2892 8.3089 15.25L8.29168 16.75ZM16.0503 9.15607C16.0348 6.19951 14.3019 3.52171 11.6111 2.29644L10.9895 3.66156C13.1478 4.6444 14.5379 6.79237 14.5503 9.16393L16.0503 9.15607Z" fill="black"/>
</svg>
