<svg width="18" height="18" viewBox="0 0 18 18" fill="none" xmlns="http://www.w3.org/2000/svg">
<path d="M16.5002 6.83111C16.9421 6.83111 17.3003 7.18933 17.3003 7.63121V10.3332C17.3003 10.7751 16.9421 11.1333 16.5002 11.1333H12.2337C11.7918 11.1333 11.4336 11.4916 11.4336 11.9334V16.1999C11.4336 16.6418 11.0754 17 10.6335 17H7.9315C7.48962 17 7.1314 16.6418 7.1314 16.1999V11.9334C7.1314 11.4916 6.77319 11.1333 6.3313 11.1333H2.10039C1.65851 11.1333 1.30029 10.7751 1.30029 10.3332V7.63121C1.30029 7.18933 1.65851 6.83111 2.10039 6.83111H6.3313C6.77319 6.83111 7.1314 6.4729 7.1314 6.03101V1.8001C7.1314 1.35822 7.48962 1 7.9315 1H10.6335C11.0754 1 11.4336 1.35822 11.4336 1.8001V6.03101C11.4336 6.4729 11.7918 6.83111 12.2337 6.83111H16.5002Z" stroke="black" stroke-width="1.20015"/>
</svg>
