<svg width="16" height="16" viewBox="0 0 16 16" fill="none" xmlns="http://www.w3.org/2000/svg">
<path d="M1 7.25013C0.585786 7.25013 0.25 7.58591 0.25 8.00013C0.25 8.41434 0.585786 8.75013 1 8.75013V7.25013ZM7.67885 8.75013C8.09306 8.75013 8.42885 8.41434 8.42885 8.00013C8.42885 7.58591 8.09306 7.25013 7.67885 7.25013V8.75013ZM7.67578 7.25015C7.26157 7.25015 6.92578 7.58593 6.92578 8.00015C6.92578 8.41436 7.26157 8.75015 7.67578 8.75015V7.25015ZM14.3546 8.75015C14.7688 8.75015 15.1046 8.41436 15.1046 8.00015C15.1046 7.58593 14.7688 7.25015 14.3546 7.25015V8.75015ZM8.4257 8.00012C8.4257 7.58591 8.08991 7.25012 7.6757 7.25012C7.26148 7.25012 6.9257 7.58591 6.9257 8.00012H8.4257ZM6.9257 14.6801C6.9257 15.0943 7.26148 15.4301 7.6757 15.4301C8.08991 15.4301 8.4257 15.0943 8.4257 14.6801H6.9257ZM6.9257 7.99989C6.9257 8.4141 7.26148 8.74989 7.6757 8.74989C8.08991 8.74989 8.4257 8.4141 8.4257 7.99989H6.9257ZM8.4257 1.31995C8.4257 0.905733 8.08991 0.569946 7.6757 0.569946C7.26148 0.569946 6.9257 0.905733 6.9257 1.31995H8.4257ZM1 8.75013H7.67885V7.25013H1V8.75013ZM7.67578 8.75015H14.3546V7.25015H7.67578V8.75015ZM7.6757 8.00012H6.9257C6.9257 8.00012 6.9257 8.00012 6.9257 8.00012C6.9257 8.00012 6.9257 8.00012 6.9257 8.00012C6.9257 8.00012 6.9257 8.00012 6.9257 8.00013C6.9257 8.00013 6.9257 8.00013 6.9257 8.00013C6.9257 8.00013 6.9257 8.00013 6.9257 8.00013C6.9257 8.00013 6.9257 8.00014 6.9257 8.00014C6.9257 8.00014 6.9257 8.00014 6.9257 8.00015C6.9257 8.00015 6.9257 8.00015 6.9257 8.00016C6.9257 8.00016 6.9257 8.00017 6.9257 8.00017C6.9257 8.00018 6.9257 8.00018 6.9257 8.00019C6.9257 8.00019 6.9257 8.0002 6.9257 8.00021C6.9257 8.00022 6.9257 8.00022 6.9257 8.00023C6.9257 8.00024 6.9257 8.00025 6.9257 8.00026C6.9257 8.00027 6.9257 8.00028 6.9257 8.00029C6.9257 8.0003 6.9257 8.00031 6.9257 8.00033C6.9257 8.00034 6.9257 8.00035 6.9257 8.00037C6.9257 8.00038 6.9257 8.0004 6.9257 8.00041C6.9257 8.00043 6.9257 8.00045 6.9257 8.00046C6.9257 8.00048 6.9257 8.0005 6.9257 8.00052C6.9257 8.00054 6.9257 8.00056 6.9257 8.00058C6.9257 8.00061 6.9257 8.00063 6.9257 8.00065C6.9257 8.00068 6.9257 8.0007 6.9257 8.00073C6.9257 8.00075 6.9257 8.00078 6.9257 8.00081C6.9257 8.00084 6.9257 8.00087 6.9257 8.0009C6.9257 8.00093 6.9257 8.00096 6.9257 8.001C6.9257 8.00103 6.9257 8.00107 6.9257 8.0011C6.9257 8.00114 6.9257 8.00118 6.9257 8.00121C6.9257 8.00125 6.9257 8.00129 6.9257 8.00134C6.9257 8.00138 6.9257 8.00142 6.9257 8.00147C6.9257 8.00151 6.9257 8.00156 6.9257 8.0016C6.9257 8.00165 6.9257 8.0017 6.9257 8.00175C6.9257 8.0018 6.9257 8.00186 6.9257 8.00191C6.9257 8.00197 6.9257 8.00202 6.9257 8.00208C6.9257 8.00214 6.9257 8.00219 6.9257 8.00226C6.9257 8.00232 6.9257 8.00238 6.9257 8.00244C6.9257 8.00251 6.9257 8.00257 6.9257 8.00264C6.9257 8.00271 6.9257 8.00278 6.9257 8.00285C6.9257 8.00292 6.9257 8.003 6.9257 8.00307C6.9257 8.00315 6.9257 8.00323 6.9257 8.00331C6.9257 8.00339 6.9257 8.00347 6.9257 8.00355C6.9257 8.00364 6.9257 8.00372 6.9257 8.00381C6.9257 8.0039 6.9257 8.00399 6.9257 8.00408C6.9257 8.00417 6.9257 8.00427 6.9257 8.00436C6.9257 8.00446 6.9257 8.00456 6.9257 8.00466C6.9257 8.00476 6.9257 8.00486 6.9257 8.00497C6.9257 8.00507 6.9257 8.00518 6.9257 8.00529C6.9257 8.0054 6.9257 8.00551 6.9257 8.00563C6.9257 8.00574 6.9257 8.00586 6.9257 8.00598C6.9257 8.0061 6.9257 8.00622 6.9257 8.00634C6.9257 8.00647 6.9257 8.00659 6.9257 8.00672C6.9257 8.00685 6.9257 8.00699 6.9257 8.00712C6.9257 8.00725 6.9257 8.00739 6.9257 8.00753C6.9257 8.00767 6.9257 8.00781 6.9257 8.00796C6.9257 8.0081 6.9257 8.00825 6.9257 8.0084C6.9257 8.00855 6.9257 8.00871 6.9257 8.00886C6.9257 8.00902 6.9257 8.00918 6.9257 8.00934C6.9257 8.0095 6.9257 8.00967 6.9257 8.00983C6.9257 8.01 6.9257 8.01017 6.9257 8.01034C6.9257 8.01052 6.9257 8.01069 6.9257 8.01087C6.9257 8.01105 6.9257 8.01123 6.9257 8.01142C6.9257 8.0116 6.9257 8.01179 6.9257 8.01198C6.9257 8.01217 6.9257 8.01237 6.9257 8.01257C6.9257 8.01276 6.9257 8.01297 6.9257 8.01317C6.9257 8.01337 6.9257 8.01358 6.9257 8.01379C6.9257 8.014 6.9257 8.01421 6.9257 8.01443C6.9257 8.01465 6.9257 8.01487 6.9257 8.01509C6.9257 8.01531 6.9257 8.01554 6.9257 8.01577C6.9257 8.016 6.9257 8.01623 6.9257 8.01647C6.9257 8.01671 6.9257 8.01695 6.9257 8.01719C6.9257 8.01744 6.9257 8.01768 6.9257 8.01794C6.9257 8.01819 6.9257 8.01844 6.9257 8.0187C6.9257 8.01896 6.9257 8.01922 6.9257 8.01948C6.9257 8.01975 6.9257 8.02002 6.9257 8.02029C6.9257 8.02056 6.9257 8.02084 6.9257 8.02112C6.9257 8.0214 6.9257 8.02168 6.9257 8.02197C6.9257 8.02226 6.9257 8.02255 6.9257 8.02284C6.9257 8.02314 6.9257 8.02344 6.9257 8.02374C6.9257 8.02404 6.9257 8.02435 6.9257 8.02466C6.9257 8.02497 6.9257 8.02529 6.9257 8.0256C6.9257 8.02592 6.9257 8.02625 6.9257 8.02657C6.9257 8.0269 6.9257 8.02723 6.9257 8.02756C6.9257 8.0279 6.9257 8.02824 6.9257 8.02858C6.9257 8.02892 6.9257 8.02927 6.9257 8.02962C6.9257 8.02997 6.9257 8.03033 6.9257 8.03069C6.9257 8.03105 6.9257 8.03141 6.9257 8.03178C6.9257 8.03215 6.9257 8.03252 6.9257 8.0329C6.9257 8.03327 6.9257 8.03365 6.9257 8.03404C6.9257 8.03442 6.9257 8.03481 6.9257 8.03521C6.9257 8.0356 6.9257 8.036 6.9257 8.0364C6.9257 8.03681 6.9257 8.03721 6.9257 8.03763C6.9257 8.03804 6.9257 8.03846 6.9257 8.03888C6.9257 8.0393 6.9257 8.03972 6.9257 8.04015C6.9257 8.04059 6.9257 8.04102 6.9257 8.04146C6.9257 8.0419 6.9257 8.04234 6.9257 8.04279C6.9257 8.04324 6.9257 8.0437 6.9257 8.04416C6.9257 8.04461 6.9257 8.04508 6.9257 8.04555C6.9257 8.04601 6.9257 8.04649 6.9257 8.04696C6.9257 8.04744 6.9257 8.04793 6.9257 8.04841C6.9257 8.0489 6.9257 8.04939 6.9257 8.04989C6.9257 8.05039 6.9257 8.05089 6.9257 8.0514C6.9257 8.05191 6.9257 8.05242 6.9257 8.05294C6.9257 8.05346 6.9257 8.05398 6.9257 8.05451C6.9257 8.05503 6.9257 8.05557 6.9257 8.05611C6.9257 8.05664 6.9257 8.05719 6.9257 8.05774C6.9257 8.05829 6.9257 8.05884 6.9257 8.0594C6.9257 8.05996 6.9257 8.06052 6.9257 8.06109C6.9257 8.06166 6.9257 8.06224 6.9257 8.06282C6.9257 8.0634 6.9257 8.06398 6.9257 8.06457C6.9257 8.06517 6.9257 8.06576 6.9257 8.06637C6.9257 8.06697 6.9257 8.06757 6.9257 8.06819C6.9257 8.0688 6.9257 8.06942 6.9257 8.07004C6.9257 8.07067 6.9257 8.0713 6.9257 8.07193C6.9257 8.07257 6.9257 8.07321 6.9257 8.07386C6.9257 8.0745 6.9257 8.07516 6.9257 8.07582C6.9257 8.07647 6.9257 8.07714 6.9257 8.07781C6.9257 8.07848 6.9257 8.07915 6.9257 8.07983C6.9257 8.08051 6.9257 8.0812 6.9257 8.08189C6.9257 8.08259 6.9257 8.08329 6.9257 8.08399C6.9257 8.0847 6.9257 8.08541 6.9257 8.08612C6.9257 8.08684 6.9257 8.08756 6.9257 8.08829C6.9257 8.08902 6.9257 8.08976 6.9257 8.0905C6.9257 8.09124 6.9257 8.09198 6.9257 8.09274C6.9257 8.09349 6.9257 8.09425 6.9257 8.09501C6.9257 8.09578 6.9257 8.09655 6.9257 8.09733C6.9257 8.09811 6.9257 8.09889 6.9257 8.09968C6.9257 8.10047 6.9257 8.10127 6.9257 8.10207C6.9257 8.10287 6.9257 8.10368 6.9257 8.1045C6.9257 8.10531 6.9257 8.10613 6.9257 8.10696C6.9257 8.10779 6.9257 8.10862 6.9257 8.10947C6.9257 8.11031 6.9257 8.11115 6.9257 8.11201C6.9257 8.11286 6.9257 8.11372 6.9257 8.11459C6.9257 8.11546 6.9257 8.11633 6.9257 8.11721C6.9257 8.11809 6.9257 8.11898 6.9257 8.11987C6.9257 8.12077 6.9257 8.12167 6.9257 8.12257C6.9257 8.12348 6.9257 8.12439 6.9257 8.12531C6.9257 8.12624 6.9257 8.12716 6.9257 8.1281C6.9257 8.12903 6.9257 8.12997 6.9257 8.13092C6.9257 8.13187 6.9257 8.13282 6.9257 8.13378C6.9257 8.13475 6.9257 8.13571 6.9257 8.13669C6.9257 8.13766 6.9257 8.13865 6.9257 8.13964C6.9257 8.14063 6.9257 8.14162 6.9257 8.14263C6.9257 8.14363 6.9257 8.14464 6.9257 8.14566C6.9257 8.14668 6.9257 8.1477 6.9257 8.14873C6.9257 8.14977 6.9257 8.1508 6.9257 8.15185C6.9257 8.1529 6.9257 8.15395 6.9257 8.15501C6.9257 8.15607 6.9257 8.15714 6.9257 8.15822C6.9257 8.15929 6.9257 8.16037 6.9257 8.16146C6.9257 8.16255 6.9257 8.16365 6.9257 8.16476C6.9257 8.16586 6.9257 8.16697 6.9257 8.16809C6.9257 8.16921 6.9257 8.17034 6.9257 8.17148C6.9257 8.17261 6.9257 8.17375 6.9257 8.1749C6.9257 8.17605 6.9257 8.17721 6.9257 8.17838C6.9257 8.17954 6.9257 8.18071 6.9257 8.18189C6.9257 8.18307 6.9257 8.18426 6.9257 8.18546C6.9257 8.18665 6.9257 8.18786 6.9257 8.18907C6.9257 8.19028 6.9257 8.1915 6.9257 8.19272C6.9257 8.19395 6.9257 8.19519 6.9257 8.19643C6.9257 8.19767 6.9257 8.19892 6.9257 8.20018C6.9257 8.20144 6.9257 8.2027 6.9257 8.20398C6.9257 8.20525 6.9257 8.20653 6.9257 8.20782C6.9257 8.20911 6.9257 8.21041 6.9257 8.21172C6.9257 8.21302 6.9257 8.21434 6.9257 8.21566C6.9257 8.21698 6.9257 8.21831 6.9257 8.21965C6.9257 8.22099 6.9257 8.22234 6.9257 8.22369C6.9257 8.22505 6.9257 8.22641 6.9257 8.22778C6.9257 8.22915 6.9257 8.23053 6.9257 8.23192C6.9257 8.23331 6.9257 8.23471 6.9257 8.23611C6.9257 8.23751 6.9257 8.23893 6.9257 8.24035C6.9257 8.24177 6.9257 8.2432 6.9257 8.24464C6.9257 8.24608 6.9257 8.24752 6.9257 8.24898C6.9257 8.25043 6.9257 8.2519 6.9257 8.25337C6.9257 8.25484 6.9257 8.25632 6.9257 8.25781C6.9257 8.2593 6.9257 8.2608 6.9257 8.26231C6.9257 8.26382 6.9257 8.26533 6.9257 8.26686C6.9257 8.26838 6.9257 8.26991 6.9257 8.27145C6.9257 8.273 6.9257 8.27455 6.9257 8.27611C6.9257 8.27766 6.9257 8.27923 6.9257 8.28081C6.9257 8.28239 6.9257 8.28397 6.9257 8.28557C6.9257 8.28716 6.9257 8.28876 6.9257 8.29038C6.9257 8.29199 6.9257 8.29361 6.9257 8.29524C6.9257 8.29687 6.9257 8.29851 6.9257 8.30016C6.9257 8.30181 6.9257 8.30347 6.9257 8.30513C6.9257 8.3068 6.9257 8.30848 6.9257 8.31016C6.9257 8.31185 6.9257 8.31354 6.9257 8.31524C6.9257 8.31695 6.9257 8.31866 6.9257 8.32038C6.9257 8.3221 6.9257 8.32383 6.9257 8.32557C6.9257 8.32731 6.9257 8.32906 6.9257 8.33082C6.9257 8.33258 6.9257 8.33435 6.9257 8.33613C6.9257 8.33791 6.9257 8.33969 6.9257 8.34149C6.9257 8.34329 6.9257 8.34509 6.9257 8.34691C6.9257 8.34872 6.9257 8.35055 6.9257 8.35238C6.9257 8.35422 6.9257 8.35606 6.9257 8.35792C6.9257 8.35977 6.9257 8.36163 6.9257 8.36351C6.9257 8.36538 6.9257 8.36726 6.9257 8.36916C6.9257 8.37105 6.9257 8.37295 6.9257 8.37486C6.9257 8.37677 6.9257 8.3787 6.9257 8.38063C6.9257 8.38256 6.9257 8.3845 6.9257 8.38645C6.9257 8.3884 6.9257 8.39036 6.9257 8.39233C6.9257 8.39431 6.9257 8.39629 6.9257 8.39828C6.9257 8.40027 6.9257 8.40227 6.9257 8.40428C6.9257 8.40629 6.9257 8.40831 6.9257 8.41034C6.9257 8.41237 6.9257 8.41441 6.9257 8.41646C6.9257 8.41852 6.9257 8.42058 6.9257 8.42265C6.9257 8.42472 6.9257 8.4268 6.9257 8.42889C6.9257 8.43098 6.9257 8.43309 6.9257 8.4352C6.9257 8.43731 6.9257 8.43943 6.9257 8.44156C6.9257 8.4437 6.9257 8.44584 6.9257 8.44799C6.9257 8.45015 6.9257 8.45231 6.9257 8.45448C6.9257 8.45666 6.9257 8.45884 6.9257 8.46104C6.9257 8.46323 6.9257 8.46544 6.9257 8.46765C6.9257 8.46987 6.9257 8.4721 6.9257 8.47433C6.9257 8.47657 6.9257 8.47882 6.9257 8.48107C6.9257 8.48333 6.9257 8.4856 6.9257 8.48788C6.9257 8.49016 6.9257 8.49245 6.9257 8.49475C6.9257 8.49705 6.9257 8.49936 6.9257 8.50168C6.9257 8.50401 6.9257 8.50634 6.9257 8.50868C6.9257 8.51103 6.9257 8.51338 6.9257 8.51575C6.9257 8.51811 6.9257 8.52049 6.9257 8.52287C6.9257 8.52526 6.9257 8.52766 6.9257 8.53007C6.9257 8.53248 6.9257 8.5349 6.9257 8.53733C6.9257 8.53976 6.9257 8.5422 6.9257 8.54465C6.9257 8.5471 6.9257 8.54957 6.9257 8.55204C6.9257 8.55452 6.9257 8.557 6.9257 8.5595C6.9257 8.562 6.9257 8.56451 6.9257 8.56703C6.9257 8.56955 6.9257 8.57208 6.9257 8.57462C6.9257 8.57716 6.9257 8.57971 6.9257 8.58228C6.9257 8.58484 6.9257 8.58742 6.9257 8.59001C6.9257 8.59259 6.9257 8.59519 6.9257 8.5978C6.9257 8.60041 6.9257 8.60303 6.9257 8.60567C6.9257 8.6083 6.9257 8.61094 6.9257 8.6136C6.9257 8.61626 6.9257 8.61892 6.9257 8.6216C6.9257 8.62428 6.9257 8.62697 6.9257 8.62967C6.9257 8.63237 6.9257 8.63509 6.9257 8.63781C6.9257 8.64054 6.9257 8.64328 6.9257 8.64602C6.9257 8.64877 6.9257 8.65153 6.9257 8.6543C6.9257 8.65708 6.9257 8.65986 6.9257 8.66266C6.9257 8.66545 6.9257 8.66826 6.9257 8.67108C6.9257 8.6739 6.9257 8.67673 6.9257 8.67957C6.9257 8.68241 6.9257 8.68527 6.9257 8.68813C6.9257 8.691 6.9257 8.69388 6.9257 8.69677C6.9257 8.69966 6.9257 8.70256 6.9257 8.70548C6.9257 8.70839 6.9257 8.71132 6.9257 8.71426C6.9257 8.7172 6.9257 8.72015 6.9257 8.72311C6.9257 8.72608 6.9257 8.72905 6.9257 8.73204C6.9257 8.73503 6.9257 8.73802 6.9257 8.74104C6.9257 8.74405 6.9257 8.74707 6.9257 8.75011C6.9257 8.75315 6.9257 8.75619 6.9257 8.75925C6.9257 8.76232 6.9257 8.76539 6.9257 8.76848C6.9257 8.77156 6.9257 8.77466 6.9257 8.77777C6.9257 8.78088 6.9257 8.784 6.9257 8.78714C6.9257 8.79027 6.9257 8.79342 6.9257 8.79658C6.9257 8.79974 6.9257 8.80292 6.9257 8.8061C6.9257 8.80929 6.9257 8.81249 6.9257 8.8157C6.9257 8.81891 6.9257 8.82213 6.9257 8.82537C6.9257 8.8286 6.9257 8.83185 6.9257 8.83511C6.9257 8.83838 6.9257 8.84165 6.9257 8.84494C6.9257 8.84823 6.9257 8.85153 6.9257 8.85484C6.9257 8.85815 6.9257 8.86148 6.9257 8.86482C6.9257 8.86815 6.9257 8.87151 6.9257 8.87487C6.9257 8.87823 6.9257 8.88161 6.9257 8.885C6.9257 8.88839 6.9257 8.8918 6.9257 8.89521C6.9257 8.89863 6.9257 8.90206 6.9257 8.9055C6.9257 8.90894 6.9257 8.9124 6.9257 8.91587C6.9257 8.91934 6.9257 8.92282 6.9257 8.92631C6.9257 8.92981 6.9257 8.93332 6.9257 8.93684C6.9257 8.94036 6.9257 8.94389 6.9257 8.94744C6.9257 8.95099 6.9257 8.95455 6.9257 8.95813C6.9257 8.9617 6.9257 8.96529 6.9257 8.96889C6.9257 8.97249 6.9257 8.97611 6.9257 8.97973C6.9257 8.98336 6.9257 8.987 6.9257 8.99066C6.9257 8.99431 6.9257 8.99798 6.9257 9.00167C6.9257 9.00535 6.9257 9.00904 6.9257 9.01275C6.9257 9.01646 6.9257 9.02018 6.9257 9.02392C6.9257 9.02766 6.9257 9.03141 6.9257 9.03517C6.9257 9.03893 6.9257 9.04271 6.9257 9.0465C6.9257 9.05029 6.9257 9.0541 6.9257 9.05792C6.9257 9.06174 6.9257 9.06557 6.9257 9.06942C6.9257 9.07326 6.9257 9.07712 6.9257 9.081C6.9257 9.08487 6.9257 9.08876 6.9257 9.09266C6.9257 9.09656 6.9257 9.10048 6.9257 9.10441C6.9257 9.10834 6.9257 9.11228 6.9257 9.11624C6.9257 9.1202 6.9257 9.12417 6.9257 9.12816C6.9257 9.13214 6.9257 9.13614 6.9257 9.14016C6.9257 9.14417 6.9257 9.1482 6.9257 9.15224C6.9257 9.15628 6.9257 9.16034 6.9257 9.16441C6.9257 9.16848 6.9257 9.17257 6.9257 9.17667C6.9257 9.18077 6.9257 9.18488 6.9257 9.18901C6.9257 9.19314 6.9257 9.19728 6.9257 9.20144C6.9257 9.20559 6.9257 9.20976 6.9257 9.21395C6.9257 9.21813 6.9257 9.22233 6.9257 9.22655C6.9257 9.23076 6.9257 9.23499 6.9257 9.23924C6.9257 9.24348 6.9257 9.24774 6.9257 9.25201C6.9257 9.25628 6.9257 9.26057 6.9257 9.26487C6.9257 9.26917 6.9257 9.27349 6.9257 9.27782C6.9257 9.28215 6.9257 9.2865 6.9257 9.29086C6.9257 9.29522 6.9257 9.2996 6.9257 9.30399C6.9257 9.30838 6.9257 9.31278 6.9257 9.3172C6.9257 9.32162 6.9257 9.32605 6.9257 9.3305C6.9257 9.33495 6.9257 9.33942 6.9257 9.3439C6.9257 9.34838 6.9257 9.35287 6.9257 9.35738C6.9257 9.36189 6.9257 9.36641 6.9257 9.37095C6.9257 9.37549 6.9257 9.38005 6.9257 9.38461C6.9257 9.38918 6.9257 9.39377 6.9257 9.39837C6.9257 9.40297 6.9257 9.40758 6.9257 9.41221C6.9257 9.41684 6.9257 9.42149 6.9257 9.42615C6.9257 9.43081 6.9257 9.43548 6.9257 9.44017C6.9257 9.44486 6.9257 9.44957 6.9257 9.45429C6.9257 9.45901 6.9257 9.46375 6.9257 9.4685C6.9257 9.47325 6.9257 9.47802 6.9257 9.4828C6.9257 9.48759 6.9257 9.49238 6.9257 9.4972C6.9257 9.50201 6.9257 9.50684 6.9257 9.51169C6.9257 9.51653 6.9257 9.52139 6.9257 9.52627C6.9257 9.53114 6.9257 9.53603 6.9257 9.54094C6.9257 9.54585 6.9257 9.55077 6.9257 9.55571C6.9257 9.56065 6.9257 9.5656 6.9257 9.57057C6.9257 9.57554 6.9257 9.58053 6.9257 9.58553C6.9257 9.59053 6.9257 9.59555 6.9257 9.60058C6.9257 9.60561 6.9257 9.61066 6.9257 9.61573C6.9257 9.62079 6.9257 9.62587 6.9257 9.63097C6.9257 9.63606 6.9257 9.64118 6.9257 9.6463C6.9257 9.65143 6.9257 9.65658 6.9257 9.66174C6.9257 9.6669 6.9257 9.67207 6.9257 9.67727C6.9257 9.68246 6.9257 9.68767 6.9257 9.69289C6.9257 9.69812 6.9257 9.70336 6.9257 9.70861C6.9257 9.71387 6.9257 9.71914 6.9257 9.72443C6.9257 9.72972 6.9257 9.73503 6.9257 9.74035C6.9257 9.74567 6.9257 9.75101 6.9257 9.75636C6.9257 9.76172 6.9257 9.76709 6.9257 9.77248C6.9257 9.77786 6.9257 9.78327 6.9257 9.78869C6.9257 9.79411 6.9257 9.79954 6.9257 9.805C6.9257 9.81045 6.9257 9.81592 6.9257 9.8214C6.9257 9.82689 6.9257 9.83239 6.9257 9.83791C6.9257 9.84343 6.9257 9.84896 6.9257 9.85452C6.9257 9.86007 6.9257 9.86564 6.9257 9.87122C6.9257 9.87681 6.9257 9.88241 6.9257 9.88803C6.9257 9.89365 6.9257 9.89928 6.9257 9.90494C6.9257 9.91059 6.9257 9.91626 6.9257 9.92194C6.9257 9.92763 6.9257 9.93333 6.9257 9.93905C6.9257 9.94477 6.9257 9.95051 6.9257 9.95626C6.9257 9.96201 6.9257 9.96778 6.9257 9.97357C6.9257 9.97936 6.9257 9.98516 6.9257 9.99098C6.9257 9.99681 6.9257 10.0026 6.9257 10.0085C6.9257 10.0144 6.9257 10.0202 6.9257 10.0261C6.9257 10.032 6.9257 10.0379 6.9257 10.0438C6.9257 10.0498 6.9257 10.0557 6.9257 10.0617C6.9257 10.0676 6.9257 10.0736 6.9257 10.0796C6.9257 10.0856 6.9257 10.0916 6.9257 10.0976C6.9257 10.1036 6.9257 10.1097 6.9257 10.1157C6.9257 10.1218 6.9257 10.1279 6.9257 10.134C6.9257 10.1401 6.9257 10.1462 6.9257 10.1523C6.9257 10.1585 6.9257 10.1646 6.9257 10.1708C6.9257 10.1769 6.9257 10.1831 6.9257 10.1893C6.9257 10.1955 6.9257 10.2018 6.9257 10.208C6.9257 10.2142 6.9257 10.2205 6.9257 10.2268C6.9257 10.233 6.9257 10.2393 6.9257 10.2456C6.9257 10.2519 6.9257 10.2583 6.9257 10.2646C6.9257 10.2709 6.9257 10.2773 6.9257 10.2837C6.9257 10.2901 6.9257 10.2965 6.9257 10.3029C6.9257 10.3093 6.9257 10.3157 6.9257 10.3222C6.9257 10.3286 6.9257 10.3351 6.9257 10.3416C6.9257 10.3481 6.9257 10.3546 6.9257 10.3611C6.9257 10.3676 6.9257 10.3741 6.9257 10.3807C6.9257 10.3873 6.9257 10.3938 6.9257 10.4004C6.9257 10.407 6.9257 10.4136 6.9257 10.4203C6.9257 10.4269 6.9257 10.4335 6.9257 10.4402C6.9257 10.4469 6.9257 10.4536 6.9257 10.4603C6.9257 10.467 6.9257 10.4737 6.9257 10.4804C6.9257 10.4872 6.9257 10.4939 6.9257 10.5007C6.9257 10.5075 6.9257 10.5143 6.9257 10.5211C6.9257 10.5279 6.9257 10.5347 6.9257 10.5416C6.9257 10.5484 6.9257 10.5553 6.9257 10.5622C6.9257 10.5691 6.9257 10.576 6.9257 10.5829C6.9257 10.5898 6.9257 10.5968 6.9257 10.6037C6.9257 10.6107 6.9257 10.6177 6.9257 10.6247C6.9257 10.6317 6.9257 10.6387 6.9257 10.6457C6.9257 10.6528 6.9257 10.6598 6.9257 10.6669C6.9257 10.674 6.9257 10.6811 6.9257 10.6882C6.9257 10.6953 6.9257 10.7024 6.9257 10.7096C6.9257 10.7167 6.9257 10.7239 6.9257 10.7311C6.9257 10.7383 6.9257 10.7455 6.9257 10.7527C6.9257 10.7599 6.9257 10.7672 6.9257 10.7744C6.9257 10.7817 6.9257 10.789 6.9257 10.7963C6.9257 10.8036 6.9257 10.8109 6.9257 10.8182C6.9257 10.8256 6.9257 10.8329 6.9257 10.8403C6.9257 10.8477 6.9257 10.8551 6.9257 10.8625C6.9257 10.8699 6.9257 10.8773 6.9257 10.8848C6.9257 10.8922 6.9257 10.8997 6.9257 10.9072C6.9257 10.9147 6.9257 10.9222 6.9257 10.9297C6.9257 10.9373 6.9257 10.9448 6.9257 10.9524C6.9257 10.96 6.9257 10.9676 6.9257 10.9752C6.9257 10.9828 6.9257 10.9904 6.9257 10.998C6.9257 11.0057 6.9257 11.0134 6.9257 11.0211C6.9257 11.0287 6.9257 11.0364 6.9257 11.0442C6.9257 11.0519 6.9257 11.0596 6.9257 11.0674C6.9257 11.0752 6.9257 11.083 6.9257 11.0908C6.9257 11.0986 6.9257 11.1064 6.9257 11.1142C6.9257 11.1221 6.9257 11.1299 6.9257 11.1378C6.9257 11.1457 6.9257 11.1536 6.9257 11.1615C6.9257 11.1695 6.9257 11.1774 6.9257 11.1854C6.9257 11.1933 6.9257 11.2013 6.9257 11.2093C6.9257 11.2173 6.9257 11.2253 6.9257 11.2334C6.9257 11.2414 6.9257 11.2495 6.9257 11.2576C6.9257 11.2657 6.9257 11.2738 6.9257 11.2819C6.9257 11.29 6.9257 11.2981 6.9257 11.3063C6.9257 11.3145 6.9257 11.3227 6.9257 11.3309C6.9257 11.3391 6.9257 11.3473 6.9257 11.3555C6.9257 11.3638 6.9257 11.372 6.9257 11.3803C6.9257 11.3886 6.9257 11.3969 6.9257 11.4052C6.9257 11.4136 6.9257 11.4219 6.9257 11.4303C6.9257 11.4386 6.9257 11.447 6.9257 11.4554C6.9257 11.4638 6.9257 11.4723 6.9257 11.4807C6.9257 11.4892 6.9257 11.4976 6.9257 11.5061C6.9257 11.5146 6.9257 11.5231 6.9257 11.5317C6.9257 11.5402 6.9257 11.5487 6.9257 11.5573C6.9257 11.5659 6.9257 11.5745 6.9257 11.5831C6.9257 11.5917 6.9257 11.6003 6.9257 11.609C6.9257 11.6176 6.9257 11.6263 6.9257 11.635C6.9257 11.6437 6.9257 11.6524 6.9257 11.6612C6.9257 11.6699 6.9257 11.6787 6.9257 11.6874C6.9257 11.6962 6.9257 11.705 6.9257 11.7138C6.9257 11.7227 6.9257 11.7315 6.9257 11.7404C6.9257 11.7492 6.9257 11.7581 6.9257 11.767C6.9257 11.7759 6.9257 11.7849 6.9257 11.7938C6.9257 11.8027 6.9257 11.8117 6.9257 11.8207C6.9257 11.8297 6.9257 11.8387 6.9257 11.8477C6.9257 11.8568 6.9257 11.8658 6.9257 11.8749C6.9257 11.884 6.9257 11.8931 6.9257 11.9022C6.9257 11.9113 6.9257 11.9204 6.9257 11.9296C6.9257 11.9388 6.9257 11.9479 6.9257 11.9571C6.9257 11.9663 6.9257 11.9756 6.9257 11.9848C6.9257 11.9941 6.9257 12.0033 6.9257 12.0126C6.9257 12.0219 6.9257 12.0312 6.9257 12.0405C6.9257 12.0499 6.9257 12.0592 6.9257 12.0686C6.9257 12.078 6.9257 12.0874 6.9257 12.0968C6.9257 12.1062 6.9257 12.1156 6.9257 12.1251C6.9257 12.1346 6.9257 12.144 6.9257 12.1536C6.9257 12.1631 6.9257 12.1726 6.9257 12.1821C6.9257 12.1917 6.9257 12.2013 6.9257 12.2108C6.9257 12.2204 6.9257 12.23 6.9257 12.2397C6.9257 12.2493 6.9257 12.259 6.9257 12.2687C6.9257 12.2783 6.9257 12.288 6.9257 12.2978C6.9257 12.3075 6.9257 12.3172 6.9257 12.327C6.9257 12.3368 6.9257 12.3465 6.9257 12.3564C6.9257 12.3662 6.9257 12.376 6.9257 12.3859C6.9257 12.3957 6.9257 12.4056 6.9257 12.4155C6.9257 12.4254 6.9257 12.4353 6.9257 12.4453C6.9257 12.4552 6.9257 12.4652 6.9257 12.4752C6.9257 12.4852 6.9257 12.4952 6.9257 12.5052C6.9257 12.5152 6.9257 12.5253 6.9257 12.5354C6.9257 12.5454 6.9257 12.5555 6.9257 12.5657C6.9257 12.5758 6.9257 12.5859 6.9257 12.5961C6.9257 12.6063 6.9257 12.6165 6.9257 12.6267C6.9257 12.6369 6.9257 12.6471 6.9257 12.6574C6.9257 12.6676 6.9257 12.6779 6.9257 12.6882C6.9257 12.6985 6.9257 12.7089 6.9257 12.7192C6.9257 12.7296 6.9257 12.7399 6.9257 12.7503C6.9257 12.7607 6.9257 12.7711 6.9257 12.7816C6.9257 12.792 6.9257 12.8025 6.9257 12.813C6.9257 12.8234 6.9257 12.834 6.9257 12.8445C6.9257 12.855 6.9257 12.8656 6.9257 12.8761C6.9257 12.8867 6.9257 12.8973 6.9257 12.9079C6.9257 12.9186 6.9257 12.9292 6.9257 12.9399C6.9257 12.9506 6.9257 12.9612 6.9257 12.972C6.9257 12.9827 6.9257 12.9934 6.9257 13.0042C6.9257 13.0149 6.9257 13.0257 6.9257 13.0365C6.9257 13.0473 6.9257 13.0582 6.9257 13.069C6.9257 13.0799 6.9257 13.0908 6.9257 13.1017C6.9257 13.1126 6.9257 13.1235 6.9257 13.1344C6.9257 13.1454 6.9257 13.1563 6.9257 13.1673C6.9257 13.1783 6.9257 13.1893 6.9257 13.2004C6.9257 13.2114 6.9257 13.2225 6.9257 13.2336C6.9257 13.2447 6.9257 13.2558 6.9257 13.2669C6.9257 13.278 6.9257 13.2892 6.9257 13.3004C6.9257 13.3116 6.9257 13.3228 6.9257 13.334C6.9257 13.3452 6.9257 13.3565 6.9257 13.3678C6.9257 13.379 6.9257 13.3903 6.9257 13.4017C6.9257 13.413 6.9257 13.4243 6.9257 13.4357C6.9257 13.4471 6.9257 13.4585 6.9257 13.4699C6.9257 13.4813 6.9257 13.4928 6.9257 13.5042C6.9257 13.5157 6.9257 13.5272 6.9257 13.5387C6.9257 13.5502 6.9257 13.5618 6.9257 13.5733C6.9257 13.5849 6.9257 13.5965 6.9257 13.6081C6.9257 13.6197 6.9257 13.6313 6.9257 13.643C6.9257 13.6546 6.9257 13.6663 6.9257 13.678C6.9257 13.6897 6.9257 13.7015 6.9257 13.7132C6.9257 13.725 6.9257 13.7368 6.9257 13.7486C6.9257 13.7604 6.9257 13.7722 6.9257 13.784C6.9257 13.7959 6.9257 13.8078 6.9257 13.8197C6.9257 13.8316 6.9257 13.8435 6.9257 13.8554C6.9257 13.8674 6.9257 13.8794 6.9257 13.8914C6.9257 13.9034 6.9257 13.9154 6.9257 13.9274C6.9257 13.9395 6.9257 13.9516 6.9257 13.9637C6.9257 13.9758 6.9257 13.9879 6.9257 14C6.9257 14.0122 6.9257 14.0243 6.9257 14.0365C6.9257 14.0487 6.9257 14.0609 6.9257 14.0732C6.9257 14.0854 6.9257 14.0977 6.9257 14.11C6.9257 14.1223 6.9257 14.1346 6.9257 14.1469C6.9257 14.1593 6.9257 14.1717 6.9257 14.1841C6.9257 14.1964 6.9257 14.2089 6.9257 14.2213C6.9257 14.2337 6.9257 14.2462 6.9257 14.2587C6.9257 14.2712 6.9257 14.2837 6.9257 14.2963C6.9257 14.3088 6.9257 14.3214 6.9257 14.334C6.9257 14.3465 6.9257 14.3592 6.9257 14.3718C6.9257 14.3845 6.9257 14.3971 6.9257 14.4098C6.9257 14.4225 6.9257 14.4352 6.9257 14.448C6.9257 14.4607 6.9257 14.4735 6.9257 14.4863C6.9257 14.4991 6.9257 14.5119 6.9257 14.5247C6.9257 14.5376 6.9257 14.5504 6.9257 14.5633C6.9257 14.5762 6.9257 14.5891 6.9257 14.6021C6.9257 14.615 6.9257 14.628 6.9257 14.641C6.9257 14.654 6.9257 14.667 6.9257 14.6801H8.4257C8.4257 14.667 8.4257 14.654 8.4257 14.641C8.4257 14.628 8.4257 14.615 8.4257 14.6021C8.4257 14.5891 8.4257 14.5762 8.4257 14.5633C8.4257 14.5504 8.4257 14.5376 8.4257 14.5247C8.4257 14.5119 8.4257 14.4991 8.4257 14.4863C8.4257 14.4735 8.4257 14.4607 8.4257 14.448C8.4257 14.4352 8.4257 14.4225 8.4257 14.4098C8.4257 14.3971 8.4257 14.3845 8.4257 14.3718C8.4257 14.3592 8.4257 14.3465 8.4257 14.334C8.4257 14.3214 8.4257 14.3088 8.4257 14.2963C8.4257 14.2837 8.4257 14.2712 8.4257 14.2587C8.4257 14.2462 8.4257 14.2337 8.4257 14.2213C8.4257 14.2089 8.4257 14.1964 8.4257 14.1841C8.4257 14.1717 8.4257 14.1593 8.4257 14.1469C8.4257 14.1346 8.4257 14.1223 8.4257 14.11C8.4257 14.0977 8.4257 14.0854 8.4257 14.0732C8.4257 14.0609 8.4257 14.0487 8.4257 14.0365C8.4257 14.0243 8.4257 14.0122 8.4257 14C8.4257 13.9879 8.4257 13.9758 8.4257 13.9637C8.4257 13.9516 8.4257 13.9395 8.4257 13.9274C8.4257 13.9154 8.4257 13.9034 8.4257 13.8914C8.4257 13.8794 8.4257 13.8674 8.4257 13.8554C8.4257 13.8435 8.4257 13.8316 8.4257 13.8197C8.4257 13.8078 8.4257 13.7959 8.4257 13.784C8.4257 13.7722 8.4257 13.7604 8.4257 13.7486C8.4257 13.7368 8.4257 13.725 8.4257 13.7132C8.4257 13.7015 8.4257 13.6897 8.4257 13.678C8.4257 13.6663 8.4257 13.6546 8.4257 13.643C8.4257 13.6313 8.4257 13.6197 8.4257 13.6081C8.4257 13.5965 8.4257 13.5849 8.4257 13.5733C8.4257 13.5618 8.4257 13.5502 8.4257 13.5387C8.4257 13.5272 8.4257 13.5157 8.4257 13.5042C8.4257 13.4928 8.4257 13.4813 8.4257 13.4699C8.4257 13.4585 8.4257 13.4471 8.4257 13.4357C8.4257 13.4243 8.4257 13.413 8.4257 13.4017C8.4257 13.3903 8.4257 13.379 8.4257 13.3678C8.4257 13.3565 8.4257 13.3452 8.4257 13.334C8.4257 13.3228 8.4257 13.3116 8.4257 13.3004C8.4257 13.2892 8.4257 13.278 8.4257 13.2669C8.4257 13.2558 8.4257 13.2447 8.4257 13.2336C8.4257 13.2225 8.4257 13.2114 8.4257 13.2004C8.4257 13.1893 8.4257 13.1783 8.4257 13.1673C8.4257 13.1563 8.4257 13.1454 8.4257 13.1344C8.4257 13.1235 8.4257 13.1126 8.4257 13.1017C8.4257 13.0908 8.4257 13.0799 8.4257 13.069C8.4257 13.0582 8.4257 13.0473 8.4257 13.0365C8.4257 13.0257 8.4257 13.0149 8.4257 13.0042C8.4257 12.9934 8.4257 12.9827 8.4257 12.972C8.4257 12.9612 8.4257 12.9506 8.4257 12.9399C8.4257 12.9292 8.4257 12.9186 8.4257 12.9079C8.4257 12.8973 8.4257 12.8867 8.4257 12.8761C8.4257 12.8656 8.4257 12.855 8.4257 12.8445C8.4257 12.834 8.4257 12.8234 8.4257 12.813C8.4257 12.8025 8.4257 12.792 8.4257 12.7816C8.4257 12.7711 8.4257 12.7607 8.4257 12.7503C8.4257 12.7399 8.4257 12.7296 8.4257 12.7192C8.4257 12.7089 8.4257 12.6985 8.4257 12.6882C8.4257 12.6779 8.4257 12.6676 8.4257 12.6574C8.4257 12.6471 8.4257 12.6369 8.4257 12.6267C8.4257 12.6165 8.4257 12.6063 8.4257 12.5961C8.4257 12.5859 8.4257 12.5758 8.4257 12.5657C8.4257 12.5555 8.4257 12.5454 8.4257 12.5354C8.4257 12.5253 8.4257 12.5152 8.4257 12.5052C8.4257 12.4952 8.4257 12.4852 8.4257 12.4752C8.4257 12.4652 8.4257 12.4552 8.4257 12.4453C8.4257 12.4353 8.4257 12.4254 8.4257 12.4155C8.4257 12.4056 8.4257 12.3957 8.4257 12.3859C8.4257 12.376 8.4257 12.3662 8.4257 12.3564C8.4257 12.3465 8.4257 12.3368 8.4257 12.327C8.4257 12.3172 8.4257 12.3075 8.4257 12.2978C8.4257 12.288 8.4257 12.2783 8.4257 12.2687C8.4257 12.259 8.4257 12.2493 8.4257 12.2397C8.4257 12.23 8.4257 12.2204 8.4257 12.2108C8.4257 12.2013 8.4257 12.1917 8.4257 12.1821C8.4257 12.1726 8.4257 12.1631 8.4257 12.1536C8.4257 12.144 8.4257 12.1346 8.4257 12.1251C8.4257 12.1156 8.4257 12.1062 8.4257 12.0968C8.4257 12.0874 8.4257 12.078 8.4257 12.0686C8.4257 12.0592 8.4257 12.0499 8.4257 12.0405C8.4257 12.0312 8.4257 12.0219 8.4257 12.0126C8.4257 12.0033 8.4257 11.9941 8.4257 11.9848C8.4257 11.9756 8.4257 11.9663 8.4257 11.9571C8.4257 11.9479 8.4257 11.9388 8.4257 11.9296C8.4257 11.9204 8.4257 11.9113 8.4257 11.9022C8.4257 11.8931 8.4257 11.884 8.4257 11.8749C8.4257 11.8658 8.4257 11.8568 8.4257 11.8477C8.4257 11.8387 8.4257 11.8297 8.4257 11.8207C8.4257 11.8117 8.4257 11.8027 8.4257 11.7938C8.4257 11.7849 8.4257 11.7759 8.4257 11.767C8.4257 11.7581 8.4257 11.7492 8.4257 11.7404C8.4257 11.7315 8.4257 11.7227 8.4257 11.7138C8.4257 11.705 8.4257 11.6962 8.4257 11.6874C8.4257 11.6787 8.4257 11.6699 8.4257 11.6612C8.4257 11.6524 8.4257 11.6437 8.4257 11.635C8.4257 11.6263 8.4257 11.6176 8.4257 11.609C8.4257 11.6003 8.4257 11.5917 8.4257 11.5831C8.4257 11.5745 8.4257 11.5659 8.4257 11.5573C8.4257 11.5487 8.4257 11.5402 8.4257 11.5317C8.4257 11.5231 8.4257 11.5146 8.4257 11.5061C8.4257 11.4976 8.4257 11.4892 8.4257 11.4807C8.4257 11.4723 8.4257 11.4638 8.4257 11.4554C8.4257 11.447 8.4257 11.4386 8.4257 11.4303C8.4257 11.4219 8.4257 11.4136 8.4257 11.4052C8.4257 11.3969 8.4257 11.3886 8.4257 11.3803C8.4257 11.372 8.4257 11.3638 8.4257 11.3555C8.4257 11.3473 8.4257 11.3391 8.4257 11.3309C8.4257 11.3227 8.4257 11.3145 8.4257 11.3063C8.4257 11.2981 8.4257 11.29 8.4257 11.2819C8.4257 11.2738 8.4257 11.2657 8.4257 11.2576C8.4257 11.2495 8.4257 11.2414 8.4257 11.2334C8.4257 11.2253 8.4257 11.2173 8.4257 11.2093C8.4257 11.2013 8.4257 11.1933 8.4257 11.1854C8.4257 11.1774 8.4257 11.1695 8.4257 11.1615C8.4257 11.1536 8.4257 11.1457 8.4257 11.1378C8.4257 11.1299 8.4257 11.1221 8.4257 11.1142C8.4257 11.1064 8.4257 11.0986 8.4257 11.0908C8.4257 11.083 8.4257 11.0752 8.4257 11.0674C8.4257 11.0596 8.4257 11.0519 8.4257 11.0442C8.4257 11.0364 8.4257 11.0287 8.4257 11.0211C8.4257 11.0134 8.4257 11.0057 8.4257 10.998C8.4257 10.9904 8.4257 10.9828 8.4257 10.9752C8.4257 10.9676 8.4257 10.96 8.4257 10.9524C8.4257 10.9448 8.4257 10.9373 8.4257 10.9297C8.4257 10.9222 8.4257 10.9147 8.4257 10.9072C8.4257 10.8997 8.4257 10.8922 8.4257 10.8848C8.4257 10.8773 8.4257 10.8699 8.4257 10.8625C8.4257 10.8551 8.4257 10.8477 8.4257 10.8403C8.4257 10.8329 8.4257 10.8256 8.4257 10.8182C8.4257 10.8109 8.4257 10.8036 8.4257 10.7963C8.4257 10.789 8.4257 10.7817 8.4257 10.7744C8.4257 10.7672 8.4257 10.7599 8.4257 10.7527C8.4257 10.7455 8.4257 10.7383 8.4257 10.7311C8.4257 10.7239 8.4257 10.7167 8.4257 10.7096C8.4257 10.7024 8.4257 10.6953 8.4257 10.6882C8.4257 10.6811 8.4257 10.674 8.4257 10.6669C8.4257 10.6598 8.4257 10.6528 8.4257 10.6457C8.4257 10.6387 8.4257 10.6317 8.4257 10.6247C8.4257 10.6177 8.4257 10.6107 8.4257 10.6037C8.4257 10.5968 8.4257 10.5898 8.4257 10.5829C8.4257 10.576 8.4257 10.5691 8.4257 10.5622C8.4257 10.5553 8.4257 10.5484 8.4257 10.5416C8.4257 10.5347 8.4257 10.5279 8.4257 10.5211C8.4257 10.5143 8.4257 10.5075 8.4257 10.5007C8.4257 10.4939 8.4257 10.4872 8.4257 10.4804C8.4257 10.4737 8.4257 10.467 8.4257 10.4603C8.4257 10.4536 8.4257 10.4469 8.4257 10.4402C8.4257 10.4335 8.4257 10.4269 8.4257 10.4203C8.4257 10.4136 8.4257 10.407 8.4257 10.4004C8.4257 10.3938 8.4257 10.3873 8.4257 10.3807C8.4257 10.3741 8.4257 10.3676 8.4257 10.3611C8.4257 10.3546 8.4257 10.3481 8.4257 10.3416C8.4257 10.3351 8.4257 10.3286 8.4257 10.3222C8.4257 10.3157 8.4257 10.3093 8.4257 10.3029C8.4257 10.2965 8.4257 10.2901 8.4257 10.2837C8.4257 10.2773 8.4257 10.2709 8.4257 10.2646C8.4257 10.2583 8.4257 10.2519 8.4257 10.2456C8.4257 10.2393 8.4257 10.233 8.4257 10.2268C8.4257 10.2205 8.4257 10.2142 8.4257 10.208C8.4257 10.2018 8.4257 10.1955 8.4257 10.1893C8.4257 10.1831 8.4257 10.1769 8.4257 10.1708C8.4257 10.1646 8.4257 10.1585 8.4257 10.1523C8.4257 10.1462 8.4257 10.1401 8.4257 10.134C8.4257 10.1279 8.4257 10.1218 8.4257 10.1157C8.4257 10.1097 8.4257 10.1036 8.4257 10.0976C8.4257 10.0916 8.4257 10.0856 8.4257 10.0796C8.4257 10.0736 8.4257 10.0676 8.4257 10.0617C8.4257 10.0557 8.4257 10.0498 8.4257 10.0438C8.4257 10.0379 8.4257 10.032 8.4257 10.0261C8.4257 10.0202 8.4257 10.0144 8.4257 10.0085C8.4257 10.0026 8.4257 9.99681 8.4257 9.99098C8.4257 9.98516 8.4257 9.97936 8.4257 9.97357C8.4257 9.96778 8.4257 9.96201 8.4257 9.95626C8.4257 9.95051 8.4257 9.94477 8.4257 9.93905C8.4257 9.93333 8.4257 9.92763 8.4257 9.92194C8.4257 9.91626 8.4257 9.91059 8.4257 9.90494C8.4257 9.89928 8.4257 9.89365 8.4257 9.88803C8.4257 9.88241 8.4257 9.87681 8.4257 9.87122C8.4257 9.86564 8.4257 9.86007 8.4257 9.85452C8.4257 9.84896 8.4257 9.84343 8.4257 9.83791C8.4257 9.83239 8.4257 9.82689 8.4257 9.8214C8.4257 9.81592 8.4257 9.81045 8.4257 9.805C8.4257 9.79954 8.4257 9.79411 8.4257 9.78869C8.4257 9.78327 8.4257 9.77786 8.4257 9.77248C8.4257 9.76709 8.4257 9.76172 8.4257 9.75636C8.4257 9.75101 8.4257 9.74567 8.4257 9.74035C8.4257 9.73503 8.4257 9.72972 8.4257 9.72443C8.4257 9.71914 8.4257 9.71387 8.4257 9.70861C8.4257 9.70336 8.4257 9.69812 8.4257 9.69289C8.4257 9.68767 8.4257 9.68246 8.4257 9.67727C8.4257 9.67207 8.4257 9.6669 8.4257 9.66174C8.4257 9.65658 8.4257 9.65143 8.4257 9.6463C8.4257 9.64118 8.4257 9.63606 8.4257 9.63097C8.4257 9.62587 8.4257 9.62079 8.4257 9.61573C8.4257 9.61066 8.4257 9.60561 8.4257 9.60058C8.4257 9.59555 8.4257 9.59053 8.4257 9.58553C8.4257 9.58053 8.4257 9.57554 8.4257 9.57057C8.4257 9.5656 8.4257 9.56065 8.4257 9.55571C8.4257 9.55077 8.4257 9.54585 8.4257 9.54094C8.4257 9.53603 8.4257 9.53114 8.4257 9.52627C8.4257 9.52139 8.4257 9.51653 8.4257 9.51169C8.4257 9.50684 8.4257 9.50201 8.4257 9.4972C8.4257 9.49238 8.4257 9.48759 8.4257 9.4828C8.4257 9.47802 8.4257 9.47325 8.4257 9.4685C8.4257 9.46375 8.4257 9.45901 8.4257 9.45429C8.4257 9.44957 8.4257 9.44486 8.4257 9.44017C8.4257 9.43548 8.4257 9.43081 8.4257 9.42615C8.4257 9.42149 8.4257 9.41684 8.4257 9.41221C8.4257 9.40758 8.4257 9.40297 8.4257 9.39837C8.4257 9.39377 8.4257 9.38918 8.4257 9.38461C8.4257 9.38005 8.4257 9.37549 8.4257 9.37095C8.4257 9.36641 8.4257 9.36189 8.4257 9.35738C8.4257 9.35287 8.4257 9.34838 8.4257 9.3439C8.4257 9.33942 8.4257 9.33495 8.4257 9.3305C8.4257 9.32605 8.4257 9.32162 8.4257 9.3172C8.4257 9.31278 8.4257 9.30838 8.4257 9.30399C8.4257 9.2996 8.4257 9.29522 8.4257 9.29086C8.4257 9.2865 8.4257 9.28215 8.4257 9.27782C8.4257 9.27349 8.4257 9.26917 8.4257 9.26487C8.4257 9.26057 8.4257 9.25628 8.4257 9.25201C8.4257 9.24774 8.4257 9.24348 8.4257 9.23924C8.4257 9.23499 8.4257 9.23076 8.4257 9.22655C8.4257 9.22233 8.4257 9.21813 8.4257 9.21395C8.4257 9.20976 8.4257 9.20559 8.4257 9.20144C8.4257 9.19728 8.4257 9.19314 8.4257 9.18901C8.4257 9.18488 8.4257 9.18077 8.4257 9.17667C8.4257 9.17257 8.4257 9.16848 8.4257 9.16441C8.4257 9.16034 8.4257 9.15628 8.4257 9.15224C8.4257 9.1482 8.4257 9.14417 8.4257 9.14016C8.4257 9.13614 8.4257 9.13214 8.4257 9.12816C8.4257 9.12417 8.4257 9.1202 8.4257 9.11624C8.4257 9.11228 8.4257 9.10834 8.4257 9.10441C8.4257 9.10048 8.4257 9.09656 8.4257 9.09266C8.4257 9.08876 8.4257 9.08487 8.4257 9.081C8.4257 9.07712 8.4257 9.07326 8.4257 9.06942C8.4257 9.06557 8.4257 9.06174 8.4257 9.05792C8.4257 9.0541 8.4257 9.05029 8.4257 9.0465C8.4257 9.04271 8.4257 9.03893 8.4257 9.03517C8.4257 9.03141 8.4257 9.02766 8.4257 9.02392C8.4257 9.02018 8.4257 9.01646 8.4257 9.01275C8.4257 9.00904 8.4257 9.00535 8.4257 9.00167C8.4257 8.99798 8.4257 8.99431 8.4257 8.99066C8.4257 8.987 8.4257 8.98336 8.4257 8.97973C8.4257 8.97611 8.4257 8.97249 8.4257 8.96889C8.4257 8.96529 8.4257 8.9617 8.4257 8.95813C8.4257 8.95455 8.4257 8.95099 8.4257 8.94744C8.4257 8.94389 8.4257 8.94036 8.4257 8.93684C8.4257 8.93332 8.4257 8.92981 8.4257 8.92631C8.4257 8.92282 8.4257 8.91934 8.4257 8.91587C8.4257 8.9124 8.4257 8.90894 8.4257 8.9055C8.4257 8.90206 8.4257 8.89863 8.4257 8.89521C8.4257 8.8918 8.4257 8.88839 8.4257 8.885C8.4257 8.88161 8.4257 8.87823 8.4257 8.87487C8.4257 8.87151 8.4257 8.86815 8.4257 8.86482C8.4257 8.86148 8.4257 8.85815 8.4257 8.85484C8.4257 8.85153 8.4257 8.84823 8.4257 8.84494C8.4257 8.84165 8.4257 8.83838 8.4257 8.83511C8.4257 8.83185 8.4257 8.8286 8.4257 8.82537C8.4257 8.82213 8.4257 8.81891 8.4257 8.8157C8.4257 8.81249 8.4257 8.80929 8.4257 8.8061C8.4257 8.80292 8.4257 8.79974 8.4257 8.79658C8.4257 8.79342 8.4257 8.79027 8.4257 8.78714C8.4257 8.784 8.4257 8.78088 8.4257 8.77777C8.4257 8.77466 8.4257 8.77156 8.4257 8.76848C8.4257 8.76539 8.4257 8.76232 8.4257 8.75925C8.4257 8.75619 8.4257 8.75315 8.4257 8.75011C8.4257 8.74707 8.4257 8.74405 8.4257 8.74104C8.4257 8.73802 8.4257 8.73503 8.4257 8.73204C8.4257 8.72905 8.4257 8.72608 8.4257 8.72311C8.4257 8.72015 8.4257 8.7172 8.4257 8.71426C8.4257 8.71132 8.4257 8.70839 8.4257 8.70548C8.4257 8.70256 8.4257 8.69966 8.4257 8.69677C8.4257 8.69388 8.4257 8.691 8.4257 8.68813C8.4257 8.68527 8.4257 8.68241 8.4257 8.67957C8.4257 8.67673 8.4257 8.6739 8.4257 8.67108C8.4257 8.66826 8.4257 8.66545 8.4257 8.66266C8.4257 8.65986 8.4257 8.65708 8.4257 8.6543C8.4257 8.65153 8.4257 8.64877 8.4257 8.64602C8.4257 8.64328 8.4257 8.64054 8.4257 8.63781C8.4257 8.63509 8.4257 8.63237 8.4257 8.62967C8.4257 8.62697 8.4257 8.62428 8.4257 8.6216C8.4257 8.61892 8.4257 8.61626 8.4257 8.6136C8.4257 8.61094 8.4257 8.6083 8.4257 8.60567C8.4257 8.60303 8.4257 8.60041 8.4257 8.5978C8.4257 8.59519 8.4257 8.59259 8.4257 8.59001C8.4257 8.58742 8.4257 8.58484 8.4257 8.58228C8.4257 8.57971 8.4257 8.57716 8.4257 8.57462C8.4257 8.57208 8.4257 8.56955 8.4257 8.56703C8.4257 8.56451 8.4257 8.562 8.4257 8.5595C8.4257 8.557 8.4257 8.55452 8.4257 8.55204C8.4257 8.54957 8.4257 8.5471 8.4257 8.54465C8.4257 8.5422 8.4257 8.53976 8.4257 8.53733C8.4257 8.5349 8.4257 8.53248 8.4257 8.53007C8.4257 8.52766 8.4257 8.52526 8.4257 8.52287C8.4257 8.52049 8.4257 8.51811 8.4257 8.51575C8.4257 8.51338 8.4257 8.51103 8.4257 8.50868C8.4257 8.50634 8.4257 8.50401 8.4257 8.50168C8.4257 8.49936 8.4257 8.49705 8.4257 8.49475C8.4257 8.49245 8.4257 8.49016 8.4257 8.48788C8.4257 8.4856 8.4257 8.48333 8.4257 8.48107C8.4257 8.47882 8.4257 8.47657 8.4257 8.47433C8.4257 8.4721 8.4257 8.46987 8.4257 8.46765C8.4257 8.46544 8.4257 8.46323 8.4257 8.46104C8.4257 8.45884 8.4257 8.45666 8.4257 8.45448C8.4257 8.45231 8.4257 8.45015 8.4257 8.44799C8.4257 8.44584 8.4257 8.4437 8.4257 8.44156C8.4257 8.43943 8.4257 8.43731 8.4257 8.4352C8.4257 8.43309 8.4257 8.43098 8.4257 8.42889C8.4257 8.4268 8.4257 8.42472 8.4257 8.42265C8.4257 8.42058 8.4257 8.41852 8.4257 8.41646C8.4257 8.41441 8.4257 8.41237 8.4257 8.41034C8.4257 8.40831 8.4257 8.40629 8.4257 8.40428C8.4257 8.40227 8.4257 8.40027 8.4257 8.39828C8.4257 8.39629 8.4257 8.39431 8.4257 8.39233C8.4257 8.39036 8.4257 8.3884 8.4257 8.38645C8.4257 8.3845 8.4257 8.38256 8.4257 8.38063C8.4257 8.3787 8.4257 8.37677 8.4257 8.37486C8.4257 8.37295 8.4257 8.37105 8.4257 8.36916C8.4257 8.36726 8.4257 8.36538 8.4257 8.36351C8.4257 8.36163 8.4257 8.35977 8.4257 8.35792C8.4257 8.35606 8.4257 8.35422 8.4257 8.35238C8.4257 8.35055 8.4257 8.34872 8.4257 8.34691C8.4257 8.34509 8.4257 8.34329 8.4257 8.34149C8.4257 8.33969 8.4257 8.33791 8.4257 8.33613C8.4257 8.33435 8.4257 8.33258 8.4257 8.33082C8.4257 8.32906 8.4257 8.32731 8.4257 8.32557C8.4257 8.32383 8.4257 8.3221 8.4257 8.32038C8.4257 8.31866 8.4257 8.31695 8.4257 8.31524C8.4257 8.31354 8.4257 8.31185 8.4257 8.31016C8.4257 8.30848 8.4257 8.3068 8.4257 8.30513C8.4257 8.30347 8.4257 8.30181 8.4257 8.30016C8.4257 8.29851 8.4257 8.29687 8.4257 8.29524C8.4257 8.29361 8.4257 8.29199 8.4257 8.29038C8.4257 8.28876 8.4257 8.28716 8.4257 8.28557C8.4257 8.28397 8.4257 8.28239 8.4257 8.28081C8.4257 8.27923 8.4257 8.27766 8.4257 8.27611C8.4257 8.27455 8.4257 8.273 8.4257 8.27145C8.4257 8.26991 8.4257 8.26838 8.4257 8.26686C8.4257 8.26533 8.4257 8.26382 8.4257 8.26231C8.4257 8.2608 8.4257 8.2593 8.4257 8.25781C8.4257 8.25632 8.4257 8.25484 8.4257 8.25337C8.4257 8.2519 8.4257 8.25043 8.4257 8.24898C8.4257 8.24752 8.4257 8.24608 8.4257 8.24464C8.4257 8.2432 8.4257 8.24177 8.4257 8.24035C8.4257 8.23893 8.4257 8.23751 8.4257 8.23611C8.4257 8.23471 8.4257 8.23331 8.4257 8.23192C8.4257 8.23053 8.4257 8.22915 8.4257 8.22778C8.4257 8.22641 8.4257 8.22505 8.4257 8.22369C8.4257 8.22234 8.4257 8.22099 8.4257 8.21965C8.4257 8.21831 8.4257 8.21698 8.4257 8.21566C8.4257 8.21434 8.4257 8.21302 8.4257 8.21172C8.4257 8.21041 8.4257 8.20911 8.4257 8.20782C8.4257 8.20653 8.4257 8.20525 8.4257 8.20398C8.4257 8.2027 8.4257 8.20144 8.4257 8.20018C8.4257 8.19892 8.4257 8.19767 8.4257 8.19643C8.4257 8.19519 8.4257 8.19395 8.4257 8.19272C8.4257 8.1915 8.4257 8.19028 8.4257 8.18907C8.4257 8.18786 8.4257 8.18665 8.4257 8.18546C8.4257 8.18426 8.4257 8.18307 8.4257 8.18189C8.4257 8.18071 8.4257 8.17954 8.4257 8.17838C8.4257 8.17721 8.4257 8.17605 8.4257 8.1749C8.4257 8.17375 8.4257 8.17261 8.4257 8.17148C8.4257 8.17034 8.4257 8.16921 8.4257 8.16809C8.4257 8.16697 8.4257 8.16586 8.4257 8.16476C8.4257 8.16365 8.4257 8.16255 8.4257 8.16146C8.4257 8.16037 8.4257 8.15929 8.4257 8.15822C8.4257 8.15714 8.4257 8.15607 8.4257 8.15501C8.4257 8.15395 8.4257 8.1529 8.4257 8.15185C8.4257 8.1508 8.4257 8.14977 8.4257 8.14873C8.4257 8.1477 8.4257 8.14668 8.4257 8.14566C8.4257 8.14464 8.4257 8.14363 8.4257 8.14263C8.4257 8.14162 8.4257 8.14063 8.4257 8.13964C8.4257 8.13865 8.4257 8.13766 8.4257 8.13669C8.4257 8.13571 8.4257 8.13475 8.4257 8.13378C8.4257 8.13282 8.4257 8.13187 8.4257 8.13092C8.4257 8.12997 8.4257 8.12903 8.4257 8.1281C8.4257 8.12716 8.4257 8.12624 8.4257 8.12531C8.4257 8.12439 8.4257 8.12348 8.4257 8.12257C8.4257 8.12167 8.4257 8.12077 8.4257 8.11987C8.4257 8.11898 8.4257 8.11809 8.4257 8.11721C8.4257 8.11633 8.4257 8.11546 8.4257 8.11459C8.4257 8.11372 8.4257 8.11286 8.4257 8.11201C8.4257 8.11115 8.4257 8.11031 8.4257 8.10947C8.4257 8.10862 8.4257 8.10779 8.4257 8.10696C8.4257 8.10613 8.4257 8.10531 8.4257 8.1045C8.4257 8.10368 8.4257 8.10287 8.4257 8.10207C8.4257 8.10127 8.4257 8.10047 8.4257 8.09968C8.4257 8.09889 8.4257 8.09811 8.4257 8.09733C8.4257 8.09655 8.4257 8.09578 8.4257 8.09501C8.4257 8.09425 8.4257 8.09349 8.4257 8.09274C8.4257 8.09198 8.4257 8.09124 8.4257 8.0905C8.4257 8.08976 8.4257 8.08902 8.4257 8.08829C8.4257 8.08756 8.4257 8.08684 8.4257 8.08612C8.4257 8.08541 8.4257 8.0847 8.4257 8.08399C8.4257 8.08329 8.4257 8.08259 8.4257 8.08189C8.4257 8.0812 8.4257 8.08051 8.4257 8.07983C8.4257 8.07915 8.4257 8.07848 8.4257 8.07781C8.4257 8.07714 8.4257 8.07647 8.4257 8.07582C8.4257 8.07516 8.4257 8.0745 8.4257 8.07386C8.4257 8.07321 8.4257 8.07257 8.4257 8.07193C8.4257 8.0713 8.4257 8.07067 8.4257 8.07004C8.4257 8.06942 8.4257 8.0688 8.4257 8.06819C8.4257 8.06757 8.4257 8.06697 8.4257 8.06637C8.4257 8.06576 8.4257 8.06517 8.4257 8.06457C8.4257 8.06398 8.4257 8.0634 8.4257 8.06282C8.4257 8.06224 8.4257 8.06166 8.4257 8.06109C8.4257 8.06052 8.4257 8.05996 8.4257 8.0594C8.4257 8.05884 8.4257 8.05829 8.4257 8.05774C8.4257 8.05719 8.4257 8.05664 8.4257 8.05611C8.4257 8.05557 8.4257 8.05503 8.4257 8.05451C8.4257 8.05398 8.4257 8.05346 8.4257 8.05294C8.4257 8.05242 8.4257 8.05191 8.4257 8.0514C8.4257 8.05089 8.4257 8.05039 8.4257 8.04989C8.4257 8.04939 8.4257 8.0489 8.4257 8.04841C8.4257 8.04793 8.4257 8.04744 8.4257 8.04696C8.4257 8.04649 8.4257 8.04601 8.4257 8.04555C8.4257 8.04508 8.4257 8.04461 8.4257 8.04416C8.4257 8.0437 8.4257 8.04324 8.4257 8.04279C8.4257 8.04234 8.4257 8.0419 8.4257 8.04146C8.4257 8.04102 8.4257 8.04059 8.4257 8.04015C8.4257 8.03972 8.4257 8.0393 8.4257 8.03888C8.4257 8.03846 8.4257 8.03804 8.4257 8.03763C8.4257 8.03721 8.4257 8.03681 8.4257 8.0364C8.4257 8.036 8.4257 8.0356 8.4257 8.03521C8.4257 8.03481 8.4257 8.03442 8.4257 8.03404C8.4257 8.03365 8.4257 8.03327 8.4257 8.0329C8.4257 8.03252 8.4257 8.03215 8.4257 8.03178C8.4257 8.03141 8.4257 8.03105 8.4257 8.03069C8.4257 8.03033 8.4257 8.02997 8.4257 8.02962C8.4257 8.02927 8.4257 8.02892 8.4257 8.02858C8.4257 8.02824 8.4257 8.0279 8.4257 8.02756C8.4257 8.02723 8.4257 8.0269 8.4257 8.02657C8.4257 8.02625 8.4257 8.02592 8.4257 8.0256C8.4257 8.02529 8.4257 8.02497 8.4257 8.02466C8.4257 8.02435 8.4257 8.02404 8.4257 8.02374C8.4257 8.02344 8.4257 8.02314 8.4257 8.02284C8.4257 8.02255 8.4257 8.02226 8.4257 8.02197C8.4257 8.02168 8.4257 8.0214 8.4257 8.02112C8.4257 8.02084 8.4257 8.02056 8.4257 8.02029C8.4257 8.02002 8.4257 8.01975 8.4257 8.01948C8.4257 8.01922 8.4257 8.01896 8.4257 8.0187C8.4257 8.01844 8.4257 8.01819 8.4257 8.01794C8.4257 8.01768 8.4257 8.01744 8.4257 8.01719C8.4257 8.01695 8.4257 8.01671 8.4257 8.01647C8.4257 8.01623 8.4257 8.016 8.4257 8.01577C8.4257 8.01554 8.4257 8.01531 8.4257 8.01509C8.4257 8.01487 8.4257 8.01465 8.4257 8.01443C8.4257 8.01421 8.4257 8.014 8.4257 8.01379C8.4257 8.01358 8.4257 8.01337 8.4257 8.01317C8.4257 8.01297 8.4257 8.01276 8.4257 8.01257C8.4257 8.01237 8.4257 8.01217 8.4257 8.01198C8.4257 8.01179 8.4257 8.0116 8.4257 8.01142C8.4257 8.01123 8.4257 8.01105 8.4257 8.01087C8.4257 8.01069 8.4257 8.01052 8.4257 8.01034C8.4257 8.01017 8.4257 8.01 8.4257 8.00983C8.4257 8.00967 8.4257 8.0095 8.4257 8.00934C8.4257 8.00918 8.4257 8.00902 8.4257 8.00886C8.4257 8.00871 8.4257 8.00855 8.4257 8.0084C8.4257 8.00825 8.4257 8.0081 8.4257 8.00796C8.4257 8.00781 8.4257 8.00767 8.4257 8.00753C8.4257 8.00739 8.4257 8.00725 8.4257 8.00712C8.4257 8.00699 8.4257 8.00685 8.4257 8.00672C8.4257 8.00659 8.4257 8.00647 8.4257 8.00634C8.4257 8.00622 8.4257 8.0061 8.4257 8.00598C8.4257 8.00586 8.4257 8.00574 8.4257 8.00563C8.4257 8.00551 8.4257 8.0054 8.4257 8.00529C8.4257 8.00518 8.4257 8.00507 8.4257 8.00497C8.4257 8.00486 8.4257 8.00476 8.4257 8.00466C8.4257 8.00456 8.4257 8.00446 8.4257 8.00436C8.4257 8.00427 8.4257 8.00417 8.4257 8.00408C8.4257 8.00399 8.4257 8.0039 8.4257 8.00381C8.4257 8.00372 8.4257 8.00364 8.4257 8.00355C8.4257 8.00347 8.4257 8.00339 8.4257 8.00331C8.4257 8.00323 8.4257 8.00315 8.4257 8.00307C8.4257 8.003 8.4257 8.00292 8.4257 8.00285C8.4257 8.00278 8.4257 8.00271 8.4257 8.00264C8.4257 8.00257 8.4257 8.00251 8.4257 8.00244C8.4257 8.00238 8.4257 8.00232 8.4257 8.00226C8.4257 8.00219 8.4257 8.00214 8.4257 8.00208C8.4257 8.00202 8.4257 8.00197 8.4257 8.00191C8.4257 8.00186 8.4257 8.0018 8.4257 8.00175C8.4257 8.0017 8.4257 8.00165 8.4257 8.0016C8.4257 8.00156 8.4257 8.00151 8.4257 8.00147C8.4257 8.00142 8.4257 8.00138 8.4257 8.00134C8.4257 8.00129 8.4257 8.00125 8.4257 8.00121C8.4257 8.00118 8.4257 8.00114 8.4257 8.0011C8.4257 8.00107 8.4257 8.00103 8.4257 8.001C8.4257 8.00096 8.4257 8.00093 8.4257 8.0009C8.4257 8.00087 8.4257 8.00084 8.4257 8.00081C8.4257 8.00078 8.4257 8.00075 8.4257 8.00073C8.4257 8.0007 8.4257 8.00068 8.4257 8.00065C8.4257 8.00063 8.4257 8.00061 8.4257 8.00058C8.4257 8.00056 8.4257 8.00054 8.4257 8.00052C8.4257 8.0005 8.4257 8.00048 8.4257 8.00046C8.4257 8.00045 8.4257 8.00043 8.4257 8.00041C8.4257 8.0004 8.4257 8.00038 8.4257 8.00037C8.4257 8.00035 8.4257 8.00034 8.4257 8.00033C8.4257 8.00031 8.4257 8.0003 8.4257 8.00029C8.4257 8.00028 8.4257 8.00027 8.4257 8.00026C8.4257 8.00025 8.4257 8.00024 8.4257 8.00023C8.4257 8.00022 8.4257 8.00022 8.4257 8.00021C8.4257 8.0002 8.4257 8.00019 8.4257 8.00019C8.4257 8.00018 8.4257 8.00018 8.4257 8.00017C8.4257 8.00017 8.4257 8.00016 8.4257 8.00016C8.4257 8.00015 8.4257 8.00015 8.4257 8.00015C8.4257 8.00014 8.4257 8.00014 8.4257 8.00014C8.4257 8.00014 8.4257 8.00013 8.4257 8.00013C8.4257 8.00013 8.4257 8.00013 8.4257 8.00013C8.4257 8.00013 8.4257 8.00013 8.4257 8.00013C8.4257 8.00012 8.4257 8.00012 8.4257 8.00012C8.4257 8.00012 8.4257 8.00012 8.4257 8.00012C8.4257 8.00012 8.4257 8.00012 8.4257 8.00012H7.6757ZM8.4257 7.99989V1.31995H6.9257V7.99989H8.4257Z" fill="white" fill-opacity="0.9"/>
</svg>
