<svg width="61" height="65" viewBox="0 0 61 65" fill="none" xmlns="http://www.w3.org/2000/svg">
<g filter="url(#filter0_f_233_700)">
<path d="M27.2161 42.4646C27.0307 42.4399 26.8872 42.383 26.7821 42.3218C26.4297 42.1332 25.8597 41.5948 26.0513 40.1574L26.8486 34.1759L24.6786 33.8867C23.4359 33.721 23.0687 33.0775 22.9567 32.7133C22.8461 32.3399 22.8021 31.6073 23.7431 30.7794L31.8262 23.7399C32.9155 22.7903 33.6753 22.9671 34.0277 23.1556C34.3801 23.3441 34.9502 23.8826 34.7586 25.32L33.9613 31.3015L36.1313 31.5907C37.3739 31.7564 37.7412 32.3999 37.8531 32.7641C37.9638 33.1375 38.0077 33.8701 37.0668 34.6979L28.9836 41.7375C28.2251 42.4009 27.6242 42.519 27.2161 42.4646Z" fill="white"/>
</g>
<path d="M27.2161 42.4646C27.0307 42.4399 26.8872 42.383 26.7821 42.3218C26.4297 42.1332 25.8597 41.5948 26.0513 40.1574L26.8486 34.1759L24.6786 33.8867C23.4359 33.721 23.0687 33.0775 22.9567 32.7133C22.8461 32.3399 22.8021 31.6073 23.7431 30.7794L31.8262 23.7399C32.9155 22.7903 33.6753 22.9671 34.0277 23.1556C34.3801 23.3441 34.9502 23.8826 34.7586 25.32L33.9613 31.3015L36.1313 31.5907C37.3739 31.7564 37.7412 32.3999 37.8531 32.7641C37.9638 33.1375 38.0077 33.8701 37.0668 34.6979L28.9836 41.7375C28.2251 42.4009 27.6242 42.519 27.2161 42.4646Z" fill="white"/>
<defs>
<filter id="filter0_f_233_700" x="0.381111" y="0.487801" width="60.0476" height="64.507" filterUnits="userSpaceOnUse" color-interpolation-filters="sRGB">
<feFlood flood-opacity="0" result="BackgroundImageFix"/>
<feBlend mode="normal" in="SourceGraphic" in2="BackgroundImageFix" result="shape"/>
<feGaussianBlur stdDeviation="11.2593" result="effect1_foregroundBlur_233_700"/>
</filter>
</defs>
</svg>
