<svg width="24" height="24" viewBox="0 0 24 24" fill="none" xmlns="http://www.w3.org/2000/svg">
<path d="M17.1356 7.2789C17.5365 7.17449 17.7768 6.76491 17.6724 6.36407C17.568 5.96323 17.1584 5.72293 16.7576 5.82733L17.1356 7.2789ZM2.86245 10.2216L3.04304 10.9496L3.05149 10.9474L2.86245 10.2216ZM2.15818 10.9587L1.42276 10.8115L1.42276 10.8115L2.15818 10.9587ZM2.52445 11.9102L2.07759 12.5125C2.11778 12.5423 2.16086 12.568 2.20617 12.5893L2.52445 11.9102ZM8.3785 15.482C8.75357 15.6578 9.20012 15.4963 9.3759 15.1212C9.55168 14.7461 9.39013 14.2996 9.01506 14.1238L8.3785 15.482ZM17.6724 6.74216C17.7768 6.34132 17.5365 5.93174 17.1356 5.82733C16.7348 5.72293 16.3252 5.96323 16.2208 6.36407L17.6724 6.74216ZM13.2781 20.6373L12.5523 20.4482L12.5502 20.4567L13.2781 20.6373ZM12.541 21.3415L12.6882 22.077L12.6882 22.077L12.541 21.3415ZM11.5896 20.9753L10.9104 21.2935C10.9317 21.3389 10.9574 21.3819 10.9872 21.4221L11.5896 20.9753ZM9.3759 14.4847C9.20012 14.1096 8.75357 13.948 8.3785 14.1238C8.00344 14.2996 7.84189 14.7461 8.01767 15.1212L9.3759 14.4847ZM17.4769 7.08345C17.7698 6.79055 17.7698 6.31568 17.4769 6.02279C17.184 5.72989 16.7092 5.72989 16.4163 6.02279L17.4769 7.08345ZM8.16645 14.2726C7.87356 14.5655 7.87356 15.0404 8.16645 15.3333C8.45935 15.6262 8.93422 15.6262 9.22711 15.3333L8.16645 14.2726ZM16.7576 5.82733L2.6734 9.4958L3.05149 10.9474L17.1356 7.2789L16.7576 5.82733ZM2.68187 9.49365C2.04249 9.65226 1.55206 10.1656 1.42276 10.8115L2.89359 11.1059C2.90893 11.0293 2.96714 10.9683 3.04302 10.9495L2.68187 9.49365ZM1.42276 10.8115C1.29347 11.4575 1.54853 12.12 2.07759 12.5125L2.97131 11.3078C2.90851 11.2612 2.87824 11.1826 2.89359 11.1059L1.42276 10.8115ZM2.20617 12.5893L8.3785 15.482L9.01506 14.1238L2.84273 11.231L2.20617 12.5893ZM16.2208 6.36407L12.5523 20.4482L14.0039 20.8263L17.6724 6.74216L16.2208 6.36407ZM12.5502 20.4567C12.5314 20.5326 12.4704 20.5908 12.3938 20.6061L12.6882 22.077C13.3341 21.9477 13.8475 21.4572 14.0061 20.8178L12.5502 20.4567ZM12.3938 20.6061C12.3171 20.6215 12.2385 20.5912 12.1919 20.5284L10.9872 21.4221C11.3797 21.9512 12.0423 22.2062 12.6882 22.077L12.3938 20.6061ZM12.2687 20.657L9.3759 14.4847L8.01767 15.1212L10.9104 21.2935L12.2687 20.657ZM16.4163 6.02279L8.16645 14.2726L9.22711 15.3333L17.4769 7.08345L16.4163 6.02279Z" fill="black" fill-opacity="0.4"/>
</svg>
