<svg width="32" height="32" viewBox="0 0 32 32" fill="none" xmlns="http://www.w3.org/2000/svg">
<path fill-rule="evenodd" clip-rule="evenodd" d="M14.8 28C14.1716 28 13.6355 27.5452 13.5332 26.9251C13.439 26.4235 13.0778 26.0137 12.592 25.8571C12.1962 25.7213 11.8092 25.5609 11.4332 25.3771C10.9858 25.1483 10.449 25.1825 10.0343 25.4663C9.53241 25.8272 8.84295 25.7713 8.40573 25.3343L6.70516 23.6337C6.24749 23.176 6.18803 22.4544 6.56459 21.928C6.855 21.5037 6.89683 20.9567 6.6743 20.4931C6.52768 20.1711 6.39836 19.8415 6.28687 19.5057C6.12722 18.9766 5.6865 18.5801 5.14345 18.4771C4.48856 18.3725 4.00511 17.81 4.00002 17.1469V15.0194C3.99653 14.255 4.54865 13.6012 5.30287 13.4766C5.87504 13.3677 6.35281 12.9758 6.57145 12.436C6.63659 12.284 6.70516 12.1331 6.77716 11.9834C7.06794 11.4236 7.02777 10.7493 6.67259 10.228C6.22839 9.61065 6.2966 8.76244 6.83373 8.224L8.08345 6.97429C8.69981 6.3577 9.67192 6.2779 10.3806 6.78571L10.42 6.81314C10.9492 7.16931 11.6226 7.23381 12.2097 6.98457C12.8379 6.75848 13.3008 6.21869 13.4286 5.56343L13.4457 5.50514C13.5869 4.63766 14.336 4.00035 15.2149 4H16.7234C17.626 3.99959 18.3964 4.65241 18.544 5.54286L18.5714 5.66286C18.6926 6.29058 19.1316 6.81008 19.7303 7.03429C20.3073 7.28194 20.9709 7.21727 21.4892 6.86286L21.5749 6.80114C22.3019 6.27716 23.3017 6.35775 23.9354 6.99143L25.0857 8.14343C25.6622 8.72313 25.7347 9.63473 25.2572 10.2983C24.8831 10.8529 24.8353 11.5656 25.132 12.1651L25.2057 12.3366C25.4461 12.9219 25.9658 13.3463 26.5874 13.4646C27.3998 13.597 27.9973 14.2975 28 15.1206V17.0286C27.9998 17.7544 27.4748 18.3736 26.7589 18.4926C26.17 18.6055 25.6903 19.0319 25.5092 19.6034C25.4292 19.832 25.34 20.0606 25.2417 20.2891C25.013 20.7914 25.0637 21.3766 25.3754 21.832C25.7868 22.4042 25.7229 23.1903 25.2246 23.6886L23.6286 25.2863C23.1722 25.7426 22.4524 25.8014 21.928 25.4251C21.4903 25.1261 20.9232 25.0931 20.4537 25.3394C20.1193 25.5051 19.7759 25.6522 19.4252 25.78C18.9349 25.9491 18.5734 26.3689 18.4789 26.8789C18.3789 27.5205 17.8288 27.9951 17.1794 28H14.8Z" fill="black"/>
<path fill-rule="evenodd" clip-rule="evenodd" d="M20.0013 15.9997C20.0013 18.2085 18.2107 19.9991 16.0019 19.9991C13.793 19.9991 12.0024 18.2085 12.0024 15.9997C12.0024 13.7908 13.793 12.0002 16.0019 12.0002C18.2107 12.0002 20.0013 13.7908 20.0013 15.9997Z" fill="white"/>
</svg>
