<svg width="22" height="22" viewBox="0 0 22 22" fill="none" xmlns="http://www.w3.org/2000/svg">
<path d="M11.3003 14.2812C9.48904 14.2812 8.01904 12.8112 8.01904 11C8.01904 9.18875 9.48904 7.71875 11.3003 7.71875C13.1115 7.71875 14.5815 9.18875 14.5815 11C14.5815 12.8112 13.1115 14.2812 11.3003 14.2812ZM11.3003 9.03125C10.2153 9.03125 9.33154 9.915 9.33154 11C9.33154 12.085 10.2153 12.9688 11.3003 12.9688C12.3853 12.9688 13.269 12.085 13.269 11C13.269 9.915 12.3853 9.03125 11.3003 9.03125Z" fill="#292D32"/>
<path d="M14.1092 19.9153C13.9254 19.9153 13.7417 19.889 13.5579 19.8453C13.0154 19.6965 12.5604 19.3553 12.2717 18.874L12.1667 18.699C11.6504 17.8065 10.9417 17.8065 10.4254 18.699L10.3292 18.8653C10.0404 19.3553 9.58544 19.7053 9.04294 19.8453C8.49169 19.994 7.92295 19.9153 7.44169 19.6265L5.9367 18.7603C5.40295 18.454 5.01795 17.9553 4.8517 17.3515C4.6942 16.7478 4.77295 16.1265 5.0792 15.5928C5.33294 15.1465 5.40295 14.744 5.2542 14.4903C5.10545 14.2365 4.7292 14.0878 4.21295 14.0878C2.93545 14.0878 1.8942 13.0465 1.8942 11.769V10.229C1.8942 8.95151 2.93545 7.91026 4.21295 7.91026C4.7292 7.91026 5.10545 7.76151 5.2542 7.50776C5.40295 7.25401 5.3417 6.85151 5.0792 6.40526C4.77295 5.87151 4.6942 5.24151 4.8517 4.64651C5.0092 4.04276 5.3942 3.54401 5.9367 3.23776L7.45044 2.37151C8.43919 1.78526 9.74294 2.12651 10.3379 3.13276L10.4429 3.30776C10.9592 4.20026 11.6679 4.20026 12.1842 3.30776L12.2804 3.14151C12.8754 2.12651 14.1792 1.78526 15.1767 2.38026L16.6817 3.24651C17.2154 3.55276 17.6004 4.05151 17.7667 4.65526C17.9242 5.25901 17.8454 5.88026 17.5392 6.41401C17.2854 6.86026 17.2154 7.26276 17.3642 7.51651C17.5129 7.77026 17.8892 7.91901 18.4054 7.91901C19.6829 7.91901 20.7242 8.96026 20.7242 10.2378V11.7778C20.7242 13.0553 19.6829 14.0965 18.4054 14.0965C17.8892 14.0965 17.5129 14.2453 17.3642 14.499C17.2154 14.7528 17.2767 15.1553 17.5392 15.6015C17.8454 16.1353 17.9329 16.7653 17.7667 17.3603C17.6092 17.964 17.2242 18.4628 16.6817 18.769L15.1679 19.6353C14.8354 19.819 14.4767 19.9153 14.1092 19.9153ZM11.3004 16.6778C12.0792 16.6778 12.8054 17.1678 13.3042 18.034L13.4004 18.2003C13.5054 18.384 13.6804 18.5153 13.8904 18.5678C14.1004 18.6203 14.3104 18.594 14.4854 18.489L15.9992 17.614C16.2267 17.4828 16.4017 17.264 16.4717 17.0015C16.5417 16.739 16.5067 16.4678 16.3754 16.2403C15.8767 15.3828 15.8154 14.499 16.2004 13.8253C16.5854 13.1515 17.3817 12.7665 18.3792 12.7665C18.9392 12.7665 19.3854 12.3203 19.3854 11.7603V10.2203C19.3854 9.66901 18.9392 9.21401 18.3792 9.21401C17.3817 9.21401 16.5854 8.82901 16.2004 8.15526C15.8154 7.48151 15.8767 6.59776 16.3754 5.74026C16.5067 5.51276 16.5417 5.24151 16.4717 4.97901C16.4017 4.71651 16.2354 4.50651 16.0079 4.36651L14.4942 3.50026C14.1179 3.27276 13.6192 3.40401 13.3917 3.78901L13.2954 3.95526C12.7967 4.82151 12.0704 5.31151 11.2917 5.31151C10.5129 5.31151 9.78669 4.82151 9.28794 3.95526L9.19169 3.78026C8.97294 3.41276 8.48294 3.28151 8.1067 3.50026L6.59294 4.37526C6.36544 4.50651 6.19044 4.72526 6.12044 4.98776C6.05045 5.25026 6.08544 5.52151 6.21669 5.74901C6.71545 6.60651 6.77669 7.49026 6.3917 8.16401C6.00669 8.83776 5.21045 9.22276 4.21295 9.22276C3.65295 9.22276 3.2067 9.66901 3.2067 10.229V11.769C3.2067 12.3203 3.65295 12.7753 4.21295 12.7753C5.21045 12.7753 6.00669 13.1603 6.3917 13.834C6.77669 14.5078 6.71545 15.3915 6.21669 16.249C6.08544 16.4765 6.05045 16.7478 6.12044 17.0103C6.19044 17.2728 6.3567 17.4828 6.5842 17.6228L8.09794 18.489C8.28169 18.6028 8.50044 18.629 8.70169 18.5765C8.91169 18.524 9.08669 18.384 9.20044 18.2003L9.29669 18.034C9.79544 17.1765 10.5217 16.6778 11.3004 16.6778Z" fill="#292D32"/>
</svg>
