<svg width="21" height="20" viewBox="0 0 21 20" fill="none" xmlns="http://www.w3.org/2000/svg">
<path d="M14.4672 17.7065H6.13386C3.09219 17.7065 1.34219 15.9565 1.34219 12.9148V7.08148C1.34219 4.03981 3.09219 2.28981 6.13386 2.28981H14.4672C17.5089 2.28981 19.2589 4.03981 19.2589 7.08148V12.9148C19.2589 15.9565 17.5089 17.7065 14.4672 17.7065ZM6.13386 3.53981C3.75053 3.53981 2.59219 4.69814 2.59219 7.08148V12.9148C2.59219 15.2981 3.75053 16.4565 6.13386 16.4565H14.4672C16.8505 16.4565 18.0089 15.2981 18.0089 12.9148V7.08148C18.0089 4.69814 16.8505 3.53981 14.4672 3.53981H6.13386Z" fill="#292D32"/>
<path d="M10.3002 10.7243C9.60021 10.7243 8.89188 10.5076 8.35021 10.0659L5.74188 7.98261C5.47521 7.76594 5.42521 7.37427 5.64188 7.10761C5.85855 6.84094 6.25022 6.79094 6.51688 7.00761L9.12521 9.09094C9.75854 9.59928 10.8335 9.59928 11.4669 9.09094L14.0752 7.00761C14.3419 6.79094 14.7419 6.83261 14.9502 7.10761C15.1669 7.37427 15.1252 7.77427 14.8502 7.98261L12.2419 10.0659C11.7085 10.5076 11.0002 10.7243 10.3002 10.7243Z" fill="#292D32"/>
</svg>
