<svg width="18" height="18" viewBox="0 0 18 18" fill="none" xmlns="http://www.w3.org/2000/svg">
<path fill-rule="evenodd" clip-rule="evenodd" d="M11.5984 4.66942L10.1854 1.98323C9.81051 1.27063 8.79017 1.27063 8.41532 1.98323L7.0023 4.66942C6.83995 4.98867 6.60497 5.26537 6.31624 5.47728C6.02611 5.69028 5.69038 5.83283 5.33563 5.89364L2.25999 6.49666C1.5136 6.643 1.19734 7.53598 1.68526 8.11946L3.90634 10.7756C4.35846 11.2711 4.5718 11.9392 4.49048 12.6051L4.08668 15.877C3.98962 16.6634 4.80217 17.245 5.51524 16.8994L8.22154 15.5879C8.55788 15.425 8.92663 15.3401 9.30034 15.3394C9.65097 15.3404 9.99622 15.4257 10.3071 15.5879L13.1512 16.8515C13.8623 17.1675 14.646 16.5859 14.5495 15.8137L14.14 12.5355C14.0605 11.8711 14.2742 11.2051 14.7254 10.711L16.9066 8.12083C17.3975 7.53787 17.082 6.642 16.3341 6.49537L13.2651 5.89364C12.9099 5.83301 12.5737 5.69046 12.2832 5.47728C11.9949 5.26522 11.7604 4.98853 11.5984 4.66942Z" stroke="black" stroke-width="1.3454" stroke-linecap="round" stroke-linejoin="round"/>
</svg>
