<svg width="24" height="23" viewBox="0 0 24 23" fill="none" xmlns="http://www.w3.org/2000/svg">
<path fill-rule="evenodd" clip-rule="evenodd" d="M14.497 11.4146C14.497 12.7937 13.379 13.9116 12 13.9116C10.621 13.9116 9.50305 12.7937 9.50305 11.4146C9.50305 10.0356 10.621 8.91768 12 8.91768C13.379 8.91768 14.497 10.0356 14.497 11.4146Z" stroke="white" stroke-width="1.42683" stroke-linecap="round" stroke-linejoin="round"/>
<path d="M18.6585 12.1281C19.0525 12.1281 19.372 11.8086 19.372 11.4146C19.372 11.0206 19.0525 10.7012 18.6585 10.7012V12.1281ZM16.9939 10.7012C16.5999 10.7012 16.2805 11.0206 16.2805 11.4146C16.2805 11.8086 16.5999 12.1281 16.9939 12.1281V10.7012ZM7.0061 12.1281C7.40011 12.1281 7.71951 11.8086 7.71951 11.4146C7.71951 11.0206 7.40011 10.7012 7.0061 10.7012V12.1281ZM5.34146 10.7012C4.94746 10.7012 4.62805 11.0206 4.62805 11.4146C4.62805 11.8086 4.94746 12.1281 5.34146 12.1281V10.7012ZM12.7134 4.7561C12.7134 4.3621 12.394 4.04269 12 4.04269C11.606 4.04269 11.2866 4.3621 11.2866 4.7561H12.7134ZM11.2866 6.42074C11.2866 6.81475 11.606 7.13415 12 7.13415C12.394 7.13415 12.7134 6.81475 12.7134 6.42074H11.2866ZM12.7134 16.4085C12.7134 16.0145 12.394 15.6951 12 15.6951C11.606 15.6951 11.2866 16.0145 11.2866 16.4085H12.7134ZM11.2866 18.0732C11.2866 18.4672 11.606 18.7866 12 18.7866C12.394 18.7866 12.7134 18.4672 12.7134 18.0732H11.2866ZM17.213 7.21057C17.4916 6.93196 17.4916 6.48025 17.213 6.20165C16.9344 5.92304 16.4827 5.92304 16.2041 6.20165L17.213 7.21057ZM15.0265 7.37926C14.7479 7.65786 14.7479 8.10957 15.0265 8.38818C15.3051 8.66678 15.7568 8.66678 16.0354 8.38818L15.0265 7.37926ZM8.97353 15.45C9.25214 15.1714 9.25214 14.7197 8.97353 14.4411C8.69493 14.1625 8.24322 14.1625 7.96461 14.4411L8.97353 15.45ZM6.787 15.6187C6.5084 15.8973 6.5084 16.349 6.787 16.6276C7.06561 16.9062 7.51732 16.9062 7.79592 16.6276L6.787 15.6187ZM7.79592 6.20165C7.51732 5.92304 7.06561 5.92304 6.787 6.20165C6.5084 6.48025 6.5084 6.93196 6.787 7.21057L7.79592 6.20165ZM7.96461 8.38818C8.24322 8.66678 8.69493 8.66678 8.97353 8.38818C9.25214 8.10957 9.25214 7.65786 8.97353 7.37926L7.96461 8.38818ZM16.0363 14.4421C15.7577 14.1634 15.306 14.1634 15.0274 14.4421C14.7488 14.7207 14.7488 15.1724 15.0274 15.451L16.0363 14.4421ZM16.2041 16.6276C16.4827 16.9062 16.9344 16.9062 17.213 16.6276C17.4916 16.349 17.4916 15.8973 17.213 15.6187L16.2041 16.6276ZM18.6585 10.7012H16.9939V12.1281H18.6585V10.7012ZM7.0061 10.7012H5.34146V12.1281H7.0061V10.7012ZM11.2866 4.7561V6.42074H12.7134V4.7561H11.2866ZM11.2866 16.4085V18.0732H12.7134V16.4085H11.2866ZM16.2041 6.20165L15.0265 7.37926L16.0354 8.38818L17.213 7.21057L16.2041 6.20165ZM7.96461 14.4411L6.787 15.6187L7.79592 16.6276L8.97353 15.45L7.96461 14.4411ZM6.787 7.21057L7.96461 8.38818L8.97353 7.37926L7.79592 6.20165L6.787 7.21057ZM15.0274 15.451L16.2041 16.6276L17.213 15.6187L16.0363 14.4421L15.0274 15.451Z" fill="white"/>
</svg>
