<svg width="25" height="24" viewBox="0 0 25 24" fill="none" xmlns="http://www.w3.org/2000/svg">
<path d="M15.8003 19.75H8.80029C6.06029 19.75 4.55029 18.24 4.55029 15.5V8.5C4.55029 5.76 6.06029 4.25 8.80029 4.25H15.8003C18.5403 4.25 20.0503 5.76 20.0503 8.5V15.5C20.0503 18.24 18.5403 19.75 15.8003 19.75ZM8.80029 5.75C6.87029 5.75 6.05029 6.57 6.05029 8.5V15.5C6.05029 17.43 6.87029 18.25 8.80029 18.25H15.8003C17.7303 18.25 18.5503 17.43 18.5503 15.5V8.5C18.5503 6.57 17.7303 5.75 15.8003 5.75H8.80029Z" fill="#292D32"/>
<path d="M16.3003 2.75H8.30029C7.89029 2.75 7.55029 2.41 7.55029 2C7.55029 1.59 7.89029 1.25 8.30029 1.25H16.3003C16.7103 1.25 17.0503 1.59 17.0503 2C17.0503 2.41 16.7103 2.75 16.3003 2.75Z" fill="#292D32"/>
<path d="M16.3003 22.75H8.30029C7.89029 22.75 7.55029 22.41 7.55029 22C7.55029 21.59 7.89029 21.25 8.30029 21.25H16.3003C16.7103 21.25 17.0503 21.59 17.0503 22C17.0503 22.41 16.7103 22.75 16.3003 22.75Z" fill="#292D32"/>
<path d="M14.8003 13.25H11.8003C11.3903 13.25 11.0503 12.91 11.0503 12.5V9.5C11.0503 9.09 11.3903 8.75 11.8003 8.75C12.2103 8.75 12.5503 9.09 12.5503 9.5V11.75H14.8003C15.2103 11.75 15.5503 12.09 15.5503 12.5C15.5503 12.91 15.2103 13.25 14.8003 13.25Z" fill="#292D32"/>
</svg>
